<?xml version="1.0" standalone="no"?>
<!DOCTYPE svg PUBLIC "-//W3C//DTD SVG 20010904//EN"
 "http://www.w3.org/TR/2001/REC-SVG-20010904/DTD/svg10.dtd">
<svg version="1.0" xmlns="http://www.w3.org/2000/svg"
 width="960.000000pt" height="960.000000pt" viewBox="0 0 960.000000 960.000000"
 preserveAspectRatio="xMidYMid meet">
<metadata>
Created by potrace 1.14, written by Peter Selinger 2001-2017
</metadata>
<g transform="translate(0.000000,960.000000) scale(0.100000,-0.100000)"
fill="#000000" stroke="none">
<path d="M3868 8745 c-3 -3 -18 -8 -33 -11 -44 -8 -95 -38 -186 -108 -46 -37
-93 -73 -104 -81 -10 -8 -14 -15 -8 -15 6 0 18 6 26 14 11 11 17 12 26 3 9 -9
11 -8 6 6 -4 10 -2 17 4 17 12 0 15 -33 4 -44 -5 -4 -8 -13 -8 -19 -1 -7 -7
-11 -14 -9 -7 1 -10 -2 -5 -9 5 -8 2 -10 -7 -7 -10 4 -14 -4 -15 -33 -1 -25 3
-36 10 -32 6 4 6 0 -1 -9 -7 -8 -10 -18 -6 -21 3 -4 -3 -18 -15 -30 -12 -13
-19 -27 -15 -30 3 -4 1 -7 -5 -7 -6 0 -23 -11 -37 -25 -26 -27 -35 -46 -12
-26 17 13 27 5 27 -23 0 -25 -34 -92 -61 -122 -30 -32 -43 -88 -27 -118 10
-19 17 -23 28 -16 13 8 12 12 -7 25 -19 13 -20 18 -10 52 6 21 26 56 44 77 35
42 49 90 39 131 -4 14 -3 25 1 25 13 0 147 131 149 146 2 11 61 91 84 114 3 3
17 21 31 40 59 79 118 133 139 127 17 -4 19 -3 9 9 -11 14 -41 19 -51 9z
m-236 -185 l-9 -24 -5 22 c-4 12 -2 20 3 16 5 -3 9 0 9 7 0 7 2 10 5 7 3 -3 2
-16 -3 -28z m-36 -138 c-10 -11 -16 -12 -16 -4 0 7 5 12 10 12 6 0 10 8 11 18
0 11 2 13 6 4 3 -8 -2 -21 -11 -30z"/>
<path d="M3737 8509 c-31 -28 -57 -56 -57 -62 0 -7 5 -4 11 6 20 33 27 16 14
-33 -7 -27 -11 -50 -9 -50 2 0 -5 -23 -16 -50 -13 -33 -20 -72 -19 -113 l1
-62 11 40 c7 22 18 50 25 62 16 29 15 38 -3 23 -8 -7 -15 -8 -15 -2 0 21 31
83 45 89 8 3 15 10 15 15 0 6 -6 5 -15 -2 -12 -10 -15 -10 -15 3 0 25 57 144
79 166 42 42 4 20 -52 -30z"/>
<path d="M3935 8520 c-8 -13 4 -70 15 -70 5 0 6 17 3 38 -7 43 -9 47 -18 32z"/>
<path d="M3470 8500 c-9 -6 -10 -10 -3 -10 6 0 15 5 18 10 8 12 4 12 -15 0z"/>
<path d="M3425 8470 c-3 -5 -2 -10 4 -10 5 0 13 5 16 10 3 6 2 10 -4 10 -5 0
-13 -4 -16 -10z"/>
<path d="M3940 8433 c0 -5 -5 -26 -10 -48 -8 -36 -7 -38 6 -21 13 18 20 76 9
76 -3 0 -5 -3 -5 -7z"/>
<path d="M3283 8399 c-18 -5 -33 -12 -33 -15 0 -9 53 5 65 17 10 10 11 10 -32
-2z"/>
<path d="M3215 8370 c-3 -6 1 -7 9 -4 18 7 21 14 7 14 -6 0 -13 -4 -16 -10z"/>
<path d="M3140 8350 c0 -5 7 -7 15 -4 8 4 15 8 15 10 0 2 -7 4 -15 4 -8 0 -15
-4 -15 -10z"/>
<path d="M3095 8340 c-19 -8 -19 -9 3 -9 12 -1 22 4 22 9 0 6 -1 10 -2 9 -2 0
-12 -4 -23 -9z"/>
<path d="M3028 8323 c7 -3 16 -2 19 1 4 3 -2 6 -13 5 -11 0 -14 -3 -6 -6z"/>
<path d="M2775 8300 c-65 -7 -135 -29 -135 -42 0 -4 10 -3 23 2 12 6 81 19
152 29 91 13 113 19 75 19 -30 -1 -82 -4 -115 -8z"/>
<path d="M3890 8299 c0 -5 5 -7 10 -4 6 3 10 8 10 11 0 2 -4 4 -10 4 -5 0 -10
-5 -10 -11z"/>
<path d="M3435 8250 c-3 -5 -1 -10 4 -10 6 0 11 5 11 10 0 6 -2 10 -4 10 -3 0
-8 -4 -11 -10z"/>
<path d="M2585 8230 c-3 -6 1 -7 9 -4 18 7 21 14 7 14 -6 0 -13 -4 -16 -10z"/>
<path d="M2560 8222 c0 -7 -6 -12 -13 -12 -26 0 -122 -109 -203 -232 -109
-164 -168 -225 -272 -277 -93 -47 -157 -71 -189 -71 -13 0 -23 -4 -23 -10 0
-5 -7 -10 -16 -10 -8 0 -28 -13 -43 -28 -22 -22 -28 -36 -26 -66 2 -23 9 -42
18 -47 8 -5 25 -29 37 -53 11 -24 28 -50 37 -58 9 -7 5 5 -10 27 -14 22 -29
52 -32 68 -6 23 -4 27 16 29 13 0 29 2 34 3 22 4 71 17 85 22 8 3 23 8 34 10
10 2 31 12 46 23 16 11 42 23 59 26 17 4 31 10 31 14 0 4 6 7 13 7 19 -1 77
24 77 34 0 5 9 9 21 9 11 0 18 4 15 9 -4 5 3 7 14 4 12 -3 22 1 26 11 3 9 10
13 15 10 5 -3 9 -2 9 3 0 4 12 14 28 20 43 20 102 76 102 98 0 29 33 79 72
108 39 29 100 48 119 36 15 -9 17 -7 -36 -42 -22 -15 -36 -27 -32 -27 11 0 71
31 77 40 3 4 25 16 50 27 l45 21 -97 -3 c-101 -2 -137 -16 -172 -66 -9 -13
-16 -17 -21 -10 -10 18 4 48 30 65 24 16 37 44 13 30 -13 -8 -3 12 20 39 9 10
10 17 4 17 -6 0 -12 12 -14 28 -4 33 -38 42 -59 16 -12 -16 -12 -17 4 -11 11
4 16 3 12 -3 -3 -6 -12 -10 -20 -10 -7 0 -16 -6 -18 -12 -3 -7 -6 -4 -6 7 -1
21 42 75 60 75 6 0 8 4 5 9 -3 5 15 29 41 54 26 26 44 49 40 53 -4 4 -7 2 -7
-4z m-66 -201 c4 -5 -3 -7 -14 -4 -23 6 -26 13 -6 13 8 0 17 -4 20 -9z m-79
-11 c3 -5 -1 -10 -10 -10 -9 0 -13 5 -10 10 3 6 8 10 10 10 2 0 7 -4 10 -10z
m-15 -34 c0 -3 -4 -8 -10 -11 -5 -3 -10 -1 -10 4 0 6 5 11 10 11 6 0 10 -2 10
-4z m60 -46 c0 -5 -4 -10 -10 -10 -5 0 -10 5 -10 10 0 6 5 10 10 10 6 0 10 -4
10 -10z m-77 -40 c3 -11 4 -20 3 -20 -1 0 -9 9 -19 20 -13 15 -14 20 -3 20 7
0 16 -9 19 -20z m48 -113 c-16 -16 -20 -5 -8 23 9 22 11 23 14 6 3 -10 0 -23
-6 -29z m-21 -32 c-7 -9 -15 -13 -17 -11 -7 7 7 26 19 26 6 0 6 -6 -2 -15z
m-49 -28 c-10 -9 -11 -8 -5 6 3 10 9 15 12 12 3 -3 0 -11 -7 -18z m-71 -1 c0
-3 -4 -8 -10 -11 -5 -3 -10 -1 -10 4 0 6 5 11 10 11 6 0 10 -2 10 -4z"/>
<path d="M3389 8213 c-13 -15 -12 -15 9 -4 23 12 28 21 13 21 -5 0 -15 -7 -22
-17z"/>
<path d="M3863 8208 c-6 -13 -19 -43 -28 -68 -10 -25 -24 -59 -31 -77 -8 -17
-14 -38 -14 -46 0 -9 -6 -22 -14 -30 -8 -8 -37 -45 -65 -82 -49 -65 -59 -89
-43 -98 4 -2 1 -2 -5 -1 -7 2 -13 -1 -13 -7 0 -6 -4 -7 -10 -4 -5 3 -7 0 -4
-9 6 -14 -35 -49 -52 -45 -12 3 -166 -73 -160 -79 3 -2 1 -13 -5 -24 -9 -17
-8 -18 11 -6 11 7 23 21 26 30 8 26 45 34 60 14 7 -10 16 -17 20 -17 5 1 9 -7
9 -17 0 -11 7 -16 20 -14 13 1 7 -5 -15 -17 -19 -11 -29 -20 -22 -21 7 0 10
-5 6 -12 -4 -7 -3 -8 4 -4 17 10 42 -46 40 -90 -1 -22 6 -53 15 -71 9 -18 17
-39 17 -47 0 -14 19 -64 41 -107 4 -9 11 -34 15 -55 5 -22 9 -42 10 -46 1 -5
2 -15 3 -23 0 -8 5 -15 10 -15 16 0 1 68 -40 185 -22 61 -39 118 -39 128 0 27
19 41 73 57 27 7 51 19 54 26 3 8 9 11 14 8 6 -3 15 -1 22 4 7 5 47 29 91 51
43 23 97 54 120 68 22 15 60 37 84 50 82 44 284 223 315 280 5 8 18 24 28 34
20 20 24 46 10 68 -8 12 -21 12 -88 1 -43 -7 -87 -14 -98 -16 -41 -9 -238 -5
-293 6 -32 7 -68 20 -81 29 -22 17 -23 19 -8 52 18 40 30 79 24 79 -2 0 -8
-10 -14 -22z m51 -189 c-3 -5 -11 -3 -18 4 -18 16 -8 31 10 16 7 -6 11 -15 8
-20z m51 13 c-3 -3 -11 0 -18 7 -9 10 -8 11 6 5 10 -3 15 -9 12 -12z m90 8 c3
-5 1 -10 -4 -10 -6 0 -11 5 -11 10 0 6 2 10 4 10 3 0 8 -4 11 -10z m-25 -10
c0 -5 -7 -7 -15 -4 -8 4 -15 8 -15 10 0 2 7 4 15 4 8 0 15 -4 15 -10z m-226
-56 c3 -8 2 -12 -4 -9 -13 8 -13 -1 1 -27 9 -17 8 -24 -5 -34 -10 -7 -17 -18
-16 -26 4 -30 -13 -58 -34 -57 -18 1 -18 2 -3 6 11 3 16 11 13 19 -3 8 -2 12
3 9 5 -3 12 -1 15 4 3 5 -1 12 -10 15 -14 5 -14 7 0 22 18 17 22 39 6 29 -5
-3 -10 -1 -10 5 0 6 -5 8 -12 4 -7 -5 1 6 17 23 36 38 32 36 39 17z m157 -11
c-8 -15 -10 -15 -11 -2 0 17 10 32 18 25 2 -3 -1 -13 -7 -23z m-87 -11 c2 -4
-5 -9 -17 -9 -17 -2 -19 0 -7 7 18 12 18 12 24 2z m-4 -31 c0 -5 -9 -11 -20
-14 -11 -3 -20 -1 -20 3 0 5 8 11 18 13 9 3 18 5 20 6 1 0 2 -3 2 -8z m-265
-271 c-3 -5 2 -10 12 -10 16 -1 16 -2 2 -10 -11 -6 -25 -5 -41 2 -24 12 -25
14 -10 34 14 17 19 19 30 8 7 -8 10 -18 7 -24z m36 -73 c12 -22 12 -22 -10 -3
-11 11 -21 23 -21 28 0 14 19 -1 31 -25z m159 -8 c-7 -11 -14 -18 -17 -15 -3
3 0 12 7 21 18 21 23 19 10 -6z m-180 -3 c0 -2 -7 -7 -16 -10 -8 -3 -12 -2 -9
4 6 10 25 14 25 6z m20 -26 c-8 -5 -19 -10 -25 -10 -5 0 -3 5 5 10 8 5 20 10
25 10 6 0 3 -5 -5 -10z m0 -36 c0 -12 -29 -28 -38 -20 -2 3 -2 11 1 19 6 17
37 18 37 1z"/>
<path d="M2501 8103 c0 -11 3 -13 6 -5 2 6 10 9 15 6 7 -4 8 -2 4 4 -11 18
-26 14 -25 -5z"/>
<path d="M2536 8084 c-5 -14 -4 -15 9 -4 17 14 19 20 6 20 -5 0 -12 -7 -15
-16z"/>
<path d="M3630 7982 c0 -9 -124 -82 -139 -82 -6 0 -8 7 -5 15 4 10 0 13 -15
10 -12 -2 -21 0 -21 6 0 5 -7 9 -15 9 -8 0 -15 -7 -15 -15 0 -8 -5 -15 -11
-15 -5 0 -8 -4 -5 -9 4 -5 0 -12 -6 -15 -7 -3 -3 -3 10 0 12 3 22 1 22 -5 0
-6 -4 -11 -10 -11 -5 0 -10 -4 -10 -9 0 -6 12 -6 30 -1 l29 8 -16 -26 c-14
-22 -9 -19 28 13 24 22 68 54 96 70 50 29 85 65 63 65 -5 0 -10 -4 -10 -8z"/>
<path d="M3410 7800 c-9 -6 -10 -10 -3 -10 6 0 15 5 18 10 8 12 4 12 -15 0z"/>
<path d="M4918 7725 c-3 -14 1 -30 8 -36 12 -9 13 -5 8 22 -9 44 -10 45 -16
14z"/>
<path d="M4848 7718 c-7 -21 3 -48 19 -48 10 0 13 9 11 27 -3 28 -23 42 -30
21z"/>
<path d="M4980 7713 c0 -13 5 -23 10 -23 13 0 13 11 0 30 -8 12 -10 11 -10 -7z"/>
<path d="M5040 7620 c0 -22 4 -28 15 -24 8 4 15 17 15 30 0 15 -6 24 -15 24
-10 0 -15 -10 -15 -30z"/>
<path d="M4977 7621 c-3 -11 -1 -23 3 -26 14 -8 22 13 12 31 -8 14 -10 14 -15
-5z"/>
<path d="M5187 7618 c-2 -7 -9 -28 -15 -47 -6 -19 -9 -38 -6 -43 3 -5 2 -14
-4 -21 -5 -7 -10 -61 -11 -121 -2 -89 2 -128 24 -220 15 -61 32 -119 37 -130
13 -25 -10 -143 -30 -151 -12 -4 -12 -3 -3 9 13 16 -1 66 -19 66 -6 0 -9 4 -6
9 3 5 -1 14 -9 21 -7 6 -11 18 -8 26 3 7 -6 33 -20 56 -50 86 -97 180 -97 194
0 8 -4 14 -10 14 -5 0 -7 6 -4 13 3 8 -4 47 -16 88 -11 40 -20 84 -20 97 0 17
-4 23 -15 18 -9 -3 -15 0 -15 9 0 8 5 15 10 15 6 0 10 9 10 19 0 11 5 23 10
26 6 4 8 11 4 16 -9 16 -24 -1 -24 -28 0 -17 -7 -27 -20 -30 -17 -5 -18 -8 -8
-21 10 -12 10 -14 1 -8 -17 9 -16 3 3 -42 9 -20 22 -59 30 -87 8 -27 18 -57
21 -65 8 -19 10 -27 12 -41 0 -5 6 -7 13 -3 8 5 9 2 5 -10 -4 -10 4 -38 18
-66 14 -27 25 -54 25 -59 0 -6 15 -34 33 -63 29 -45 43 -73 52 -98 1 -3 4 -12
7 -20 22 -56 68 -219 68 -238 0 -6 -15 -14 -32 -17 -52 -11 -98 -43 -170 -116
-36 -38 -73 -69 -81 -69 -39 0 -103 139 -106 229 -1 13 -4 21 -8 17 -9 -9 -10
-14 -12 -62 -1 -36 -21 -40 -21 -4 0 10 -25 72 -56 137 -31 65 -62 135 -71
155 -8 20 -21 39 -28 42 -7 2 -18 22 -25 43 -18 56 -73 173 -82 173 -10 0 -1
-77 18 -155 8 -33 17 -76 20 -95 4 -19 10 -43 15 -52 5 -9 9 -24 9 -32 0 -8
11 -40 25 -70 14 -30 25 -57 25 -61 0 -3 11 -23 24 -44 14 -21 22 -42 19 -45
-4 -3 -2 -6 4 -6 16 0 24 -43 10 -52 -8 -5 -5 -8 8 -8 23 0 134 -90 113 -91
-24 -1 27 -17 77 -23 27 -4 96 -11 153 -16 56 -5 107 -12 112 -15 5 -3 46 -10
92 -15 46 -6 113 -19 150 -30 37 -11 107 -29 155 -39 96 -21 227 -52 343 -81
41 -11 78 -16 83 -11 5 5 -4 12 -20 16 -33 8 -28 7 -158 34 -55 11 -163 36
-240 56 -77 20 -178 44 -225 54 l-85 18 2 34 c12 185 9 174 43 177 39 4 34 27
-5 27 -22 0 -31 6 -36 25 -14 52 -10 68 21 79 17 5 30 15 30 20 0 11 -26 4
-46 -11 -14 -11 -24 12 -24 55 0 42 37 172 66 228 14 29 49 68 91 104 93 77
127 94 228 111 104 17 215 50 215 64 0 4 9 10 20 13 11 3 20 12 20 21 0 9 7
16 16 16 10 0 14 6 11 14 -3 8 6 24 21 37 l27 24 -24 -27 c-39 -44 -11 -32 52
22 38 32 52 50 41 50 -25 0 -134 -31 -134 -39 0 -3 -16 -7 -36 -8 -20 -1 -41
-6 -47 -12 -5 -5 -15 -7 -23 -4 -18 7 -219 -91 -236 -115 -7 -11 -31 -30 -53
-43 -70 -40 -146 -112 -186 -174 -33 -51 -39 -56 -40 -35 -1 14 -3 45 -4 70
-2 25 -4 45 -5 45 -1 0 -3 14 -3 30 -1 17 -5 35 -8 40 -4 6 -7 31 -7 56 -1 25
-6 59 -12 75 -6 16 -10 65 -9 108 3 56 0 81 -9 84 -6 2 -14 -2 -15 -10z m498
-258 c-3 -5 -14 -10 -23 -10 -15 0 -15 2 -2 10 20 13 33 13 25 0z m-518 -442
c-3 -8 -6 -5 -6 6 -1 11 2 17 5 13 3 -3 4 -12 1 -19z m39 -412 c-14 -34 -16
-35 -48 -26 -18 6 -55 10 -83 10 l-50 0 35 31 c19 17 62 56 95 87 l60 57 3
-62 c2 -38 -3 -75 -12 -97z"/>
<path d="M3518 7613 c7 -3 16 -2 19 1 4 3 -2 6 -13 5 -11 0 -14 -3 -6 -6z"/>
<path d="M1880 7336 c0 -2 8 -10 18 -17 15 -13 16 -12 3 4 -13 16 -21 21 -21
13z"/>
<path d="M1920 7295 c0 -2 20 -16 45 -30 24 -15 47 -34 50 -43 8 -22 53 -57
85 -67 18 -5 14 0 -15 20 -62 43 -81 75 -45 75 40 0 19 19 -27 25 -27 3 -58
10 -70 15 -13 5 -23 8 -23 5z"/>
<path d="M4860 7240 c0 -5 5 -10 10 -10 6 0 10 5 10 10 0 6 -4 10 -10 10 -5 0
-10 -4 -10 -10z"/>
<path d="M4840 7199 c0 -5 5 -7 10 -4 6 3 10 8 10 11 0 2 -4 4 -10 4 -5 0 -10
-5 -10 -11z"/>
<path d="M2626 7175 c-3 -9 -6 -25 -6 -36 0 -15 -6 -18 -32 -13 -29 4 -30 3
-10 -5 12 -6 25 -17 28 -26 11 -28 22 -15 29 36 7 51 3 73 -9 44z"/>
<path d="M2408 7153 c6 -2 18 -2 25 0 6 3 1 5 -13 5 -14 0 -19 -2 -12 -5z"/>
<path d="M2153 7143 c9 -2 25 -2 35 0 9 3 1 5 -18 5 -19 0 -27 -2 -17 -5z"/>
<path d="M6305 7116 c-20 -19 -33 -36 -28 -39 4 -3 25 10 45 29 20 18 33 36
29 39 -5 2 -25 -10 -46 -29z"/>
<path d="M1610 7056 c0 -17 5 -26 16 -26 10 0 14 7 12 22 -5 32 -28 35 -28 4z"/>
<path d="M1685 7073 c-14 -5 -6 -83 9 -83 13 0 20 59 8 76 -4 6 -12 9 -17 7z"/>
<path d="M6328 7062 c-9 -9 -21 -27 -27 -39 -6 -13 -22 -25 -34 -28 -20 -6
-37 -26 -77 -94 -8 -14 -18 -27 -22 -29 -5 -2 -8 -9 -8 -15 1 -7 9 -2 19 11
11 12 24 22 30 22 6 0 11 4 11 8 0 5 18 18 39 30 33 19 49 21 98 16 42 -4 54
-3 43 5 -8 6 -27 11 -42 11 -38 0 -42 13 -19 65 21 47 15 67 -11 37z"/>
<path d="M3692 7040 c0 -14 2 -19 5 -12 2 6 2 18 0 25 -3 6 -5 1 -5 -13z"/>
<path d="M6412 7049 c2 -6 8 -10 13 -10 5 0 11 4 13 10 2 6 -4 11 -13 11 -9 0
-15 -5 -13 -11z"/>
<path d="M2590 7029 c0 -5 -11 -27 -25 -47 -26 -38 -31 -52 -17 -52 8 0 62 91
62 104 0 3 -4 6 -10 6 -5 0 -10 -5 -10 -11z"/>
<path d="M6362 7010 c-18 -16 -32 -31 -32 -34 0 -14 27 -4 40 13 7 11 17 18
21 16 4 -3 9 2 13 10 10 27 -10 24 -42 -5z"/>
<path d="M5490 7010 c-9 -6 -10 -10 -3 -10 6 0 15 5 18 10 8 12 4 12 -15 0z"/>
<path d="M6441 6980 c-13 -12 -18 -20 -10 -20 16 1 49 24 49 34 0 11 -14 6
-39 -14z"/>
<path d="M1550 6975 c0 -8 4 -15 9 -15 5 0 24 -12 41 -26 17 -15 34 -23 38
-19 4 4 1 10 -5 12 -7 3 -13 9 -13 14 0 15 -39 49 -55 49 -8 0 -15 -7 -15 -15z"/>
<path d="M1683 6963 c-4 -9 1 -38 10 -64 9 -25 17 -49 17 -53 0 -11 -28 -6
-33 7 -4 8 -6 8 -6 0 -1 -6 13 -22 29 -35 17 -13 50 -40 73 -61 23 -21 61 -49
85 -63 23 -14 42 -30 42 -35 0 -5 15 -16 33 -25 87 -44 258 -191 272 -233 7
-24 51 -71 65 -71 15 0 79 -60 85 -80 3 -11 12 -17 20 -14 7 3 16 1 20 -5 3
-6 0 -11 -7 -11 -9 -1 -7 -5 4 -14 10 -7 15 -16 11 -19 -3 -4 1 -7 9 -7 9 0
15 -8 14 -17 0 -12 5 -17 15 -15 10 1 19 -7 22 -20 5 -23 49 -134 68 -173 8
-18 9 -17 5 5 -3 14 -17 66 -31 115 -14 50 -35 133 -46 185 -41 201 -55 259
-61 265 -10 10 1 -68 21 -157 11 -46 22 -97 25 -113 5 -29 4 -29 -10 -10 -20
26 -84 157 -84 172 0 6 -4 13 -8 15 -4 2 -25 40 -47 85 -22 46 -44 83 -48 83
-5 0 -5 5 -2 10 3 6 1 10 -5 10 -6 0 -8 5 -5 10 3 6 2 10 -3 10 -5 0 -14 11
-20 25 -6 14 -18 25 -26 25 -7 0 -16 10 -20 23 -3 13 -17 36 -30 50 -14 15
-22 27 -18 28 4 0 -4 5 -18 10 -20 8 -22 12 -10 19 13 8 12 10 -2 10 -15 0
-38 51 -38 86 0 7 -7 15 -16 18 -21 8 -26 8 -21 -1 3 -5 8 -28 11 -53 4 -25
11 -63 16 -85 6 -22 12 -48 15 -57 2 -9 9 -27 16 -40 7 -13 12 -26 11 -30 -1
-5 2 -8 8 -8 6 0 10 -9 10 -19 0 -10 7 -21 15 -25 8 -3 15 -12 15 -21 0 -8 4
-15 10 -15 5 0 7 -6 4 -14 -3 -7 2 -16 10 -19 9 -4 16 -13 16 -22 0 -8 4 -15
9 -15 5 0 12 -7 15 -16 8 -21 0 -16 -136 93 -64 51 -120 93 -123 93 -10 0 -97
70 -136 110 -32 34 -35 41 -35 95 1 34 -4 60 -10 62 -8 3 -10 -14 -8 -52 2
-33 -1 -55 -7 -55 -6 0 -8 4 -4 9 3 5 1 12 -5 16 -6 4 -8 11 -5 16 4 5 1 9 -5
9 -6 0 -9 4 -5 9 3 5 -2 17 -11 25 -14 15 -14 16 3 16 17 1 17 1 0 14 -14 11
-15 15 -5 19 10 4 10 6 0 6 -7 1 -16 -7 -19 -16z m615 -608 c-3 -3 -9 2 -12
12 -6 14 -5 15 5 6 7 -7 10 -15 7 -18z"/>
<path d="M5380 6969 c0 -5 5 -7 10 -4 6 3 10 8 10 11 0 2 -4 4 -10 4 -5 0 -10
-5 -10 -11z"/>
<path d="M2685 6940 c-3 -5 -1 -10 4 -10 6 0 11 5 11 10 0 6 -2 10 -4 10 -3 0
-8 -4 -11 -10z"/>
<path d="M5345 6940 c4 -6 11 -8 16 -5 14 9 11 15 -7 15 -8 0 -12 -5 -9 -10z"/>
<path d="M5317 6923 c-9 -2 -15 -9 -12 -14 9 -14 22 -11 29 6 3 8 4 14 3 14
-1 -1 -10 -3 -20 -6z"/>
<path d="M2502 6878 c-44 -92 -115 -325 -101 -334 5 -3 9 -3 9 1 0 3 9 39 20
81 18 65 40 115 60 134 3 3 6 19 7 35 4 47 8 62 21 78 7 7 9 17 5 20 -3 4 -1
7 5 7 7 0 12 5 12 10 0 23 -19 7 -38 -32z"/>
<path d="M3721 6879 c-1 -22 20 -83 32 -90 5 -4 5 -9 -2 -13 -6 -4 -20 8 -32
28 -12 20 -25 36 -30 36 -27 0 75 -121 122 -146 46 -23 56 -16 16 11 -36 25
-60 64 -91 150 -8 22 -15 33 -15 24z"/>
<path d="M5271 6869 c-30 -28 -19 -37 14 -11 14 11 22 23 17 26 -5 3 -19 -4
-31 -15z"/>
<path d="M5315 6851 c-10 -17 11 -21 31 -6 18 14 18 14 -3 15 -12 0 -24 -4
-28 -9z"/>
<path d="M5840 6822 c0 -4 4 -13 9 -20 7 -11 9 -11 14 1 3 9 -1 18 -9 21 -8 3
-14 2 -14 -2z"/>
<path d="M5890 6815 c0 -7 5 -17 10 -20 6 -4 8 -11 5 -16 -4 -5 -2 -9 4 -9 15
0 23 18 11 25 -6 4 -8 10 -5 15 3 4 -2 10 -10 14 -9 3 -15 0 -15 -9z"/>
<path d="M2510 6795 c-8 -9 -8 -15 -2 -15 12 0 26 19 19 26 -2 2 -10 -2 -17
-11z"/>
<path d="M4447 6759 c7 -7 15 -10 18 -7 3 3 -2 9 -12 12 -14 6 -15 5 -6 -5z"/>
<path d="M5910 6750 c0 -5 5 -10 10 -10 6 0 10 5 10 10 0 6 -4 10 -10 10 -5 0
-10 -4 -10 -10z"/>
<path d="M5876 6738 c7 -21 1 -22 -29 -7 -16 7 -14 4 7 -14 20 -18 24 -26 15
-30 -8 -2 6 -13 33 -25 26 -12 73 -48 106 -81 l60 -60 1 -93 c1 -51 4 -103 8
-115 4 -18 0 -25 -18 -32 -24 -8 -24 -8 6 -14 17 -4 59 -11 95 -18 111 -19
188 -41 270 -77 167 -73 284 -145 351 -214 21 -22 39 -37 39 -33 0 4 12 -10
26 -31 15 -21 29 -41 33 -44 46 -37 159 -248 181 -338 12 -52 55 -112 81 -112
7 0 2 12 -13 28 -32 33 -51 72 -68 137 -19 70 -103 228 -140 265 -3 3 -17 21
-32 40 -14 19 -36 45 -48 58 l-22 23 54 -6 c29 -4 75 -11 101 -16 26 -5 64 -9
84 -9 39 0 55 -14 79 -72 9 -20 23 -39 31 -42 23 -9 29 2 10 17 -9 6 -21 24
-26 39 -10 27 -10 27 17 16 15 -7 33 -16 40 -21 8 -7 12 -3 12 12 0 13 -6 21
-16 21 -24 0 -73 32 -79 51 -4 12 -14 15 -38 11 -45 -7 -68 -6 -102 2 -64 16
-151 26 -175 21 -25 -7 -25 -7 -5 13 11 11 23 18 28 15 4 -2 7 0 7 5 0 5 12
15 28 22 25 12 36 16 68 23 7 2 18 8 25 13 22 17 47 24 51 13 2 -6 17 -5 38 4
19 8 55 15 80 16 25 1 61 7 80 14 l35 12 -65 8 c-36 4 -107 8 -158 7 l-94 0
52 57 c28 32 63 78 78 103 14 25 31 48 37 52 5 4 7 8 3 8 -4 0 4 25 18 56 25
58 28 72 39 194 l6 75 -29 -80 c-16 -44 -39 -102 -51 -130 -12 -27 -21 -51
-19 -51 2 -1 -5 -11 -15 -22 -10 -11 -20 -27 -21 -36 -2 -17 -48 -83 -91 -131
-28 -32 -63 -81 -132 -185 -24 -35 -43 -58 -43 -50 0 8 -12 23 -28 32 -131 80
-181 107 -272 145 -97 41 -275 93 -321 93 -44 0 2 60 66 84 25 10 45 21 45 24
0 4 12 8 26 9 15 0 30 7 35 15 5 7 9 9 9 4 0 -6 7 -1 15 10 8 10 15 16 15 13
0 -4 13 5 29 20 28 25 33 53 6 31 -8 -7 -19 -9 -24 -5 -7 3 -8 0 -5 -9 4 -11
0 -16 -11 -16 -26 0 -12 23 28 44 23 12 35 25 34 37 -2 23 -2 23 -32 3 -14 -9
-25 -13 -25 -9 0 3 -7 0 -15 -9 -9 -8 -21 -13 -28 -10 -7 2 -37 -14 -67 -36
-29 -22 -58 -40 -62 -40 -5 0 -7 -4 -4 -9 4 -5 -9 -24 -26 -42 l-33 -33 -6 75
c-15 166 -19 201 -25 211 -4 7 -2 8 5 4 8 -5 11 2 9 23 -2 31 -8 37 -21 24 -4
-3 -1 -13 6 -21 10 -13 9 -14 -1 -8 -11 7 -13 -3 -10 -48 2 -31 2 -56 -1 -56
-7 0 -101 96 -101 103 0 3 -13 19 -30 37 -16 18 -30 29 -30 25 0 -4 -9 3 -20
16 -14 17 -18 19 -14 7z m474 -232 c0 -2 -11 -11 -25 -20 -14 -9 -25 -13 -25
-8 0 5 10 14 23 20 27 13 27 13 27 8z m-30 -60 c0 -3 -4 -8 -10 -11 -5 -3 -10
-1 -10 4 0 6 5 11 10 11 6 0 10 -2 10 -4z"/>
<path d="M3895 6663 c54 -29 96 -66 127 -110 33 -49 33 -58 -3 -45 -45 17 -85
24 -74 14 20 -20 112 -39 190 -40 l80 0 -65 9 c-49 6 -69 14 -83 31 -78 99
-149 159 -188 158 -8 -1 0 -8 16 -17z"/>
<path d="M4630 6650 c0 -5 5 -10 11 -10 5 0 7 5 4 10 -3 6 -8 10 -11 10 -2 0
-4 -4 -4 -10z"/>
<path d="M4753 6513 c9 -2 23 -2 30 0 6 3 -1 5 -18 5 -16 0 -22 -2 -12 -5z"/>
<path d="M4470 6500 l-55 -7 55 0 c30 0 69 3 85 7 l30 8 -30 -1 c-16 0 -55 -3
-85 -7z"/>
<path d="M4388 6493 c7 -3 16 -2 19 1 4 3 -2 6 -13 5 -11 0 -14 -3 -6 -6z"/>
<path d="M4278 6483 c7 -3 16 -2 19 1 4 3 -2 6 -13 5 -11 0 -14 -3 -6 -6z"/>
<path d="M2150 6389 c0 -5 4 -8 9 -4 5 3 12 1 16 -5 4 -6 11 -7 17 -4 6 4 5
10 -3 15 -19 12 -39 11 -39 -2z"/>
<path d="M1910 6288 c0 -23 37 -152 58 -205 59 -145 127 -255 230 -369 56 -63
100 -114 97 -114 -14 0 -185 95 -211 117 -74 63 -114 103 -114 112 0 14 -31
52 -100 122 -30 31 -74 76 -96 100 -23 24 -59 58 -80 76 -22 17 -49 41 -61 53
-30 27 -31 3 -2 -34 11 -14 17 -26 13 -26 -4 0 0 -8 8 -17 9 -10 23 -34 33
-53 38 -76 218 -263 313 -325 50 -34 67 -50 38 -39 -8 3 -17 0 -21 -6 -4 -7 2
-9 21 -6 15 3 33 1 38 -3 23 -18 209 -111 225 -112 9 0 5 -4 -9 -8 -14 -5
-119 -7 -233 -5 -165 2 -208 0 -204 -10 3 -7 -1 -13 -8 -13 -8 0 -11 7 -7 16
3 9 2 13 -2 9 -5 -4 -19 -3 -32 2 -16 7 -24 6 -24 -1 0 -8 -4 -8 -12 -1 -15
11 -78 22 -78 13 0 -9 55 -32 79 -34 12 -1 21 -5 21 -10 0 -5 6 -7 14 -4 8 3
17 0 19 -7 8 -21 272 -57 290 -40 3 3 27 8 54 10 98 9 114 12 120 18 3 3 16 6
27 5 21 0 21 -1 1 -9 -12 -5 11 -6 55 -3 63 4 87 0 145 -20 38 -14 71 -29 72
-34 2 -6 -22 -15 -53 -22 -31 -7 -73 -20 -93 -29 -20 -9 -38 -16 -41 -17 -52
-15 -205 -129 -235 -174 -11 -17 -23 -31 -27 -31 -12 0 -89 -72 -83 -78 3 -3
13 2 22 10 38 33 120 85 153 97 67 25 157 69 171 84 8 8 55 34 105 58 83 41
95 44 186 47 108 4 190 -15 208 -48 5 -10 10 -61 11 -113 1 -78 -3 -102 -21
-138 -23 -46 -86 -132 -133 -183 -46 -49 -103 -138 -117 -180 -14 -42 -9 -141
11 -236 15 -74 18 -184 7 -302 -11 -111 -5 -129 56 -178 30 -23 46 -29 66 -25
18 4 31 1 40 -10 18 -22 85 -20 102 4 12 17 18 18 55 8 53 -14 88 0 95 38 8
38 -13 109 -41 142 -13 15 -31 36 -39 45 -18 21 -20 156 -3 228 15 64 13 109
-5 163 l-16 47 48 58 c45 53 41 56 -13 8 -31 -27 -29 -13 2 19 14 14 23 25 19
25 -4 0 0 8 9 18 10 11 14 28 11 42 -4 24 -4 24 5 3 7 -15 16 -21 27 -16 13 5
15 15 11 45 -4 33 -3 37 9 27 15 -13 44 3 44 25 0 6 -5 4 -10 -4 -9 -13 -12
-12 -21 4 -9 15 -13 16 -20 5 -6 -10 -9 -8 -9 9 0 22 -23 31 -35 12 -7 -12
-25 -13 -25 -2 0 16 52 31 71 21 12 -6 19 -6 19 0 0 5 -6 11 -12 14 -10 3 -10
7 0 19 10 13 10 17 -2 21 -10 4 -13 1 -9 -9 3 -7 0 -14 -6 -14 -7 0 -14 7 -17
15 -4 9 -16 21 -27 27 -21 11 -21 10 -4 -15 9 -14 13 -28 9 -31 -9 -5 -34 8
-33 18 1 3 0 8 0 11 -1 3 -3 10 -4 15 -1 6 -3 17 -4 26 0 8 -5 13 -10 9 -5 -3
-12 -1 -16 5 -4 6 -12 7 -18 3 -20 -12 -47 -14 -47 -2 0 5 5 7 10 4 6 -3 10 1
10 10 0 8 7 18 15 21 8 4 15 13 15 21 0 10 6 13 16 9 9 -3 24 -6 35 -6 17 0
18 -3 9 -20 -10 -19 -10 -20 9 -8 24 15 28 38 6 38 -8 0 -15 7 -15 15 0 12 4
13 19 6 20 -11 31 -5 31 16 0 9 -5 11 -12 7 -9 -5 -8 -2 1 10 8 9 20 15 27 12
8 -3 13 0 11 7 -1 7 -9 15 -17 18 -18 7 -70 -9 -70 -22 0 -5 -4 -9 -9 -9 -5 0
-7 10 -5 23 2 12 1 15 -2 7 -4 -8 -12 -18 -18 -22 -7 -5 -7 -8 2 -8 7 0 11 -4
7 -9 -3 -5 3 -11 12 -13 15 -3 14 -5 -4 -10 -16 -4 -23 -2 -23 8 0 19 -10 18
-26 -3 -12 -16 -13 -8 -14 57 0 41 -5 104 -10 139 -6 35 -9 65 -6 68 2 2 15
-6 28 -19 13 -13 39 -35 58 -50 104 -80 140 -111 140 -119 0 -21 79 -93 132
-120 32 -16 58 -25 58 -21 0 5 -17 17 -37 26 -44 19 -91 60 -115 97 -25 39
-48 140 -43 187 4 44 -9 66 -20 32 -6 -19 -11 -17 -48 26 -65 73 -103 134
-123 197 -19 61 -41 79 -30 25 12 -60 77 -175 131 -231 42 -45 55 -67 64 -108
6 -29 10 -54 7 -56 -2 -2 -17 9 -33 24 -17 15 -61 51 -97 78 -37 28 -87 71
-112 97 -51 55 -55 53 -15 -5 27 -40 36 -77 20 -77 -26 0 -222 55 -265 75 -73
34 -133 105 -167 201 -16 43 -37 99 -47 124 -10 25 -26 65 -36 90 -10 25 -22
50 -27 55 -12 14 0 -171 15 -215 14 -44 64 -134 83 -150 8 -7 15 -17 15 -22 0
-7 -4 -7 -12 0 -7 5 -21 12 -32 14 -43 8 -170 170 -149 191 3 3 -6 9 -21 13
-14 3 -26 10 -26 15 0 5 -6 9 -13 9 -7 0 -19 15 -25 34 -19 51 -90 179 -107
192 -8 6 -15 14 -15 18 0 4 -13 26 -29 49 -25 35 -60 114 -85 190 -6 20 -26
23 -26 5z m1080 -1275 c0 -4 7 -21 15 -37 17 -32 13 -58 -7 -54 -17 4 -37 38
-38 65 0 12 -6 23 -12 26 -10 3 -10 7 0 20 12 14 16 14 28 2 8 -7 14 -17 14
-22z m-90 7 c0 -5 -5 -10 -11 -10 -5 0 -7 5 -4 10 3 6 8 10 11 10 2 0 4 -4 4
-10z m-30 -34 c0 -2 -8 -10 -17 -17 -16 -13 -17 -12 -4 4 13 16 21 21 21 13z
m-40 -56 c0 -5 -4 -10 -10 -10 -5 0 -10 5 -10 10 0 6 5 10 10 10 6 0 10 -4 10
-10z m207 -57 c-8 -19 -13 -21 -26 -11 -26 20 -27 22 -8 15 10 -4 17 -1 17 7
0 7 6 13 14 13 11 0 12 -5 3 -24z m-334 -708 c3 -60 9 -119 13 -130 7 -19 7
-19 -13 -2 -20 17 -46 93 -38 107 6 10 14 60 17 108 4 77 16 29 21 -83z m177
40 c0 -3 13 -18 28 -33 16 -16 28 -36 26 -45 -1 -10 11 -32 27 -50 16 -17 29
-37 29 -44 0 -7 4 -13 9 -13 5 0 11 -9 14 -20 6 -24 6 -24 -37 -6 -47 20 -110
131 -130 228 l-6 32 20 -22 c11 -11 20 -24 20 -27z m-121 -7 c11 -24 22 -53
24 -65 1 -11 8 -27 14 -35 6 -7 14 -28 18 -45 5 -23 12 -33 26 -33 13 0 19 -7
19 -21 0 -18 5 -21 30 -17 36 5 40 -9 5 -18 -65 -16 -116 43 -140 163 -9 43
-17 86 -19 96 -7 28 1 20 23 -25z m21 -209 c0 -6 -4 -7 -10 -4 -5 3 -10 11
-10 16 0 6 5 7 10 4 6 -3 10 -11 10 -16z"/>
<path d="M5998 6283 c7 -3 16 -2 19 1 4 3 -2 6 -13 5 -11 0 -14 -3 -6 -6z"/>
<path d="M2601 6013 c-2 -28 30 -156 54 -208 21 -49 22 -56 8 -50 -14 5 -14 2
3 -17 12 -13 42 -54 67 -93 52 -79 72 -105 80 -105 3 0 -16 34 -44 75 -27 41
-60 99 -74 128 -22 49 -32 80 -78 232 -8 28 -16 45 -16 38z"/>
<path d="M7165 6000 c-4 -6 5 -10 20 -10 15 0 24 4 20 10 -3 6 -12 10 -20 10
-8 0 -17 -4 -20 -10z"/>
<path d="M7136 5951 c-3 -5 11 -11 32 -14 20 -3 45 -8 55 -12 12 -5 17 -2 17
8 0 8 -7 18 -16 21 -23 9 -82 7 -88 -3z"/>
<path d="M2597 5819 c17 -29 51 -65 42 -44 -12 28 -45 75 -52 75 -5 0 0 -14
10 -31z"/>
<path d="M2900 5748 c0 -16 5 -28 10 -28 13 0 13 20 0 40 -8 12 -10 9 -10 -12z"/>
<path d="M1944 5688 c7 -4 23 -5 36 -3 39 7 34 14 -9 12 -24 -1 -35 -4 -27 -9z"/>
<path d="M3075 5640 c12 -41 27 -60 20 -25 -4 17 -11 35 -17 40 -7 7 -8 2 -3
-15z"/>
<path d="M3101 5564 c0 -11 3 -14 6 -6 3 7 2 16 -1 19 -3 4 -6 -2 -5 -13z"/>
<path d="M3111 5494 c0 -11 3 -14 6 -6 3 7 2 16 -1 19 -3 4 -6 -2 -5 -13z"/>
<path d="M4261 5404 c0 -11 3 -14 6 -6 3 7 2 16 -1 19 -3 4 -6 -2 -5 -13z"/>
<path d="M6925 5389 c11 -33 13 -50 15 -99 1 -34 3 -40 9 -25 10 24 -8 145
-21 145 -5 0 -6 -10 -3 -21z"/>
<path d="M7172 5365 c12 -14 26 -25 32 -25 5 0 -1 11 -14 25 -13 14 -27 25
-32 25 -4 0 2 -11 14 -25z"/>
<path d="M2950 5345 c0 -15 18 -40 24 -34 3 3 -1 14 -9 25 -8 10 -14 15 -15 9z"/>
<path d="M4262 5330 c0 -14 2 -19 5 -12 2 6 2 18 0 25 -3 6 -5 1 -5 -13z"/>
<path d="M7220 5337 c0 -2 14 -16 31 -33 16 -16 28 -22 24 -14 -5 13 -55 56
-55 47z"/>
<path d="M3020 5300 c0 -5 5 -10 11 -10 5 0 7 5 4 10 -3 6 -8 10 -11 10 -2 0
-4 -4 -4 -10z"/>
<path d="M4257 5255 c-11 -65 -41 -157 -87 -270 -52 -128 -53 -129 -55 -135
-1 -3 -5 -32 -9 -65 -10 -73 -18 -88 -28 -55 -5 18 -7 11 -4 -21 4 -55 38
-128 83 -175 82 -88 101 -347 26 -361 -6 -1 -14 4 -17 12 -3 8 -1 15 4 15 18
0 10 30 -9 38 -16 6 -17 9 -5 20 12 11 14 10 14 -3 0 -8 5 -15 10 -15 6 0 8
11 4 25 -4 16 -2 25 6 25 6 0 8 4 5 10 -4 6 -15 2 -27 -10 -24 -22 -34 -25
-43 -10 -3 5 -12 7 -19 4 -7 -3 -16 2 -19 10 -4 9 -13 13 -21 10 -8 -3 -17 0
-21 6 -5 8 -11 4 -19 -11 -16 -31 -37 -36 -34 -8 4 28 -23 37 -45 14 -19 -18
-31 -20 -21 -2 5 9 4 9 -6 0 -12 -11 -11 -19 3 -47 15 -33 15 -35 -2 -33 -12
1 -17 7 -13 19 2 10 -2 20 -12 24 -13 5 -14 9 -4 21 10 12 9 17 -3 27 -9 6
-18 17 -21 25 -3 12 -9 10 -27 -8 -19 -19 -20 -25 -9 -39 7 -9 8 -14 4 -10 -5
4 -15 0 -22 -10 -12 -15 -16 -10 -13 14 0 4 -3 10 -9 13 -21 14 -187 377 -199
434 -5 30 -32 75 -33 55 0 -9 5 -20 10 -23 6 -3 10 -14 10 -24 0 -51 155 -411
177 -411 5 0 9 -8 10 -17 1 -10 5 -31 9 -47 7 -29 7 -29 -34 -24 -44 6 -57 14
-108 68 -179 187 -235 240 -246 234 -6 -4 -8 -3 -5 3 8 12 -27 46 -36 36 -4
-3 -7 0 -7 8 0 8 -9 20 -20 27 -11 7 -20 8 -20 3 0 -5 3 -11 8 -13 11 -5 62
-83 62 -96 0 -7 5 -12 10 -12 6 0 10 -6 10 -13 0 -22 129 -168 177 -200 25
-17 41 -33 34 -35 -28 -9 -147 22 -181 47 -19 14 -42 25 -50 23 -12 -2 -13 -1
-1 6 17 12 4 35 -15 28 -8 -3 -14 1 -14 10 0 8 -5 12 -10 9 -6 -3 -13 1 -16 9
-3 9 -13 16 -21 16 -10 0 -3 -13 20 -37 39 -39 40 -57 3 -43 -15 5 -27 5 -34
-2 -7 -7 -10 -5 -9 7 1 10 -4 20 -10 22 -19 7 -15 -15 6 -36 14 -14 16 -21 8
-25 -7 -2 8 -5 33 -6 l45 -1 -35 -19 c-19 -11 -43 -19 -52 -20 -9 0 -19 -4
-23 -9 -12 -21 14 -18 70 6 71 30 123 31 210 2 38 -13 98 -22 165 -24 93 -4
105 -7 112 -25 22 -60 11 -481 -17 -613 -16 -76 -52 -137 -113 -191 -18 -16
-47 -50 -65 -75 -17 -25 -37 -52 -45 -60 -8 -8 -25 -33 -39 -55 -28 -46 -78
-95 -138 -134 -33 -22 -37 -27 -20 -30 11 -3 26 4 36 17 10 11 20 21 24 21 3
0 16 11 29 25 13 14 28 25 34 25 20 0 1 -28 -36 -53 -20 -13 -53 -38 -72 -56
-19 -17 -41 -31 -47 -31 -7 0 -13 -7 -13 -16 0 -12 3 -14 13 -6 10 8 13 6 13
-7 0 -12 -6 -17 -16 -14 -8 3 3 -11 25 -31 22 -19 45 -35 52 -36 6 0 25 -11
41 -25 49 -41 89 -34 153 25 30 28 66 58 80 67 15 9 34 30 43 47 54 102 63
113 176 198 41 31 93 72 115 92 22 20 43 36 47 36 3 0 16 19 27 43 22 46 29
135 11 153 -5 5 -18 26 -28 47 -15 32 -17 49 -9 129 14 149 79 356 159 503 28
50 34 180 12 233 -8 19 -14 43 -14 53 0 10 -6 22 -14 26 -8 4 -30 31 -48 59
-30 44 -35 61 -37 117 -3 90 -3 90 185 87 45 0 111 4 148 11 37 6 69 9 72 6 3
-2 -11 -14 -31 -25 -29 -18 -47 -42 -31 -42 12 0 76 43 76 51 0 5 6 9 14 9 8
0 28 11 43 25 24 21 26 26 13 35 -15 10 -8 14 23 11 9 -1 17 2 17 8 0 6 18 29
40 51 22 22 40 38 40 34 0 -3 -7 -33 -16 -66 -8 -33 -13 -67 -10 -75 4 -9 2
-11 -6 -7 -7 5 -9 -1 -6 -20 3 -14 2 -26 -3 -26 -13 0 -8 -164 5 -172 8 -5 8
-10 -1 -19 -8 -8 -9 -18 -2 -31 5 -10 7 -23 4 -29 -4 -5 -2 -15 3 -22 6 -7 9
-24 7 -39 -2 -16 1 -28 6 -28 6 0 8 -4 5 -9 -8 -13 4 -42 15 -35 5 3 10 -6 10
-20 2 -29 1 -24 18 -93 7 -29 20 -58 29 -65 13 -11 14 -11 8 0 -5 8 -8 31 -8
53 1 21 -4 39 -9 39 -6 0 -7 5 -4 10 4 6 1 18 -6 26 -8 10 -9 18 -2 25 13 13
4 59 -11 59 -6 0 -5 4 3 9 9 6 12 21 9 45 -2 20 -1 36 2 36 4 0 7 6 7 13 0 6
4 37 7 69 5 36 3 59 -4 63 -7 4 -5 11 5 21 8 9 12 21 8 27 -8 13 -6 239 3 280
4 22 8 26 15 16 7 -12 11 14 9 66 -1 15 37 73 72 111 39 43 42 44 102 44 46 0
74 -6 111 -26 41 -21 46 -21 25 -4 -72 59 -91 65 -215 73 -44 3 -64 2 -45 -2
l35 -6 -55 -27 c-75 -36 -169 -97 -148 -98 9 0 18 3 20 8 5 11 118 65 124 60
3 -3 -1 -12 -9 -19 -24 -25 -127 -178 -127 -189 0 -6 -4 -8 -10 -5 -5 3 -10 1
-10 -5 0 -6 -9 -20 -20 -32 -10 -12 -16 -26 -13 -32 3 -6 2 -8 -2 -3 -5 4 -26
-9 -47 -30 -21 -20 -46 -38 -55 -40 -43 -9 -158 -2 -199 12 -26 9 -80 15 -129
15 -84 0 -85 0 -83 25 1 14 6 25 10 25 4 0 5 7 2 15 -4 9 3 24 16 35 19 17 38
20 115 20 71 0 107 5 161 24 90 31 196 78 164 72 -25 -4 -97 -29 -135 -45 -67
-30 -116 -37 -227 -33 -33 1 -48 6 -48 16 0 7 16 62 35 122 23 70 35 122 33
149 l-3 40 -8 -50z m-373 -954 c3 -5 0 -11 -8 -14 -8 -3 -17 1 -20 9 -6 15 19
20 28 5z m59 -41 c3 -11 1 -18 -4 -14 -5 3 -9 12 -9 20 0 20 7 17 13 -6z m56
-24 c0 -7 -2 -6 -6 2 -2 6 -11 12 -19 12 -9 0 -12 5 -9 10 8 13 35 -6 34 -24z
m35 19 c3 -8 1 -15 -4 -15 -6 0 -10 7 -10 15 0 8 2 15 4 15 2 0 6 -7 10 -15z
m96 -17 c0 -11 -8 -10 -31 3 -11 5 -17 14 -14 19 6 10 45 -9 45 -22z m-285 5
c-10 -9 -15 -26 -12 -40 2 -12 0 -23 -4 -23 -14 0 -10 68 4 73 24 10 28 7 12
-10z m125 -38 c0 -8 -4 -15 -10 -15 -5 0 -7 7 -4 15 4 8 8 15 10 15 2 0 4 -7
4 -15z m35 5 c-3 -5 -11 -10 -16 -10 -6 0 -7 5 -4 10 3 6 11 10 16 10 6 0 7
-4 4 -10z m-135 -16 c0 -8 -5 -12 -10 -9 -6 4 -8 11 -5 16 9 14 15 11 15 -7z
m200 -19 c-10 -12 -10 -15 0 -15 8 0 11 -2 8 -5 -3 -3 -12 -3 -21 1 -13 5 -14
9 -4 20 16 18 33 18 17 -1z m-120 -12 c0 -10 -4 -14 -8 -8 -4 6 -11 13 -16 18
-5 4 -2 7 7 7 10 0 17 -8 17 -17z m190 -3 c0 -5 -7 -7 -15 -4 -8 4 -15 8 -15
10 0 2 7 4 15 4 8 0 15 -4 15 -10z m-32 -45 c-6 -14 -13 -24 -14 -22 -6 6 9
47 17 47 5 0 3 -11 -3 -25z m52 5 c0 -5 -5 -10 -11 -10 -5 0 -7 5 -4 10 3 6 8
10 11 10 2 0 4 -4 4 -10z m-88 -72 c-7 -7 -12 -8 -12 -2 0 6 3 14 7 17 3 4 9
5 12 2 2 -3 -1 -11 -7 -17z m58 2 c0 -11 -59 -79 -60 -68 0 4 10 17 23 28 12
12 17 20 11 18 -7 -2 -12 0 -13 5 -3 22 1 27 19 27 11 0 20 -4 20 -10z m-640
-1000 c0 -23 -30 -66 -54 -79 -31 -17 -49 -63 -33 -82 7 -7 2 -5 -10 5 -28 24
-29 47 -3 72 47 44 75 77 73 85 -2 5 4 9 12 9 8 0 15 -5 15 -10z m68 -55 c-6
-14 -15 -25 -20 -25 -11 0 -10 7 4 30 18 29 30 25 16 -5z m-28 -49 c0 -8 -7
-21 -15 -30 -8 -8 -15 -22 -15 -30 0 -9 -4 -16 -9 -16 -5 0 -11 -8 -14 -17 -4
-17 -4 -17 -11 -1 -6 12 1 33 20 63 30 46 44 56 44 31z"/>
<path d="M3050 5236 c7 -7 13 -7 20 0 6 6 3 10 -10 10 -13 0 -16 -4 -10 -10z"/>
<path d="M3115 5210 c3 -5 8 -10 11 -10 2 0 4 5 4 10 0 6 -5 10 -11 10 -5 0
-7 -4 -4 -10z"/>
<path d="M6936 5195 c-3 -8 -1 -15 4 -15 6 0 10 7 10 15 0 8 -2 15 -4 15 -2 0
-6 -7 -10 -15z"/>
<path d="M5460 5171 c0 -6 4 -13 10 -16 6 -3 7 1 4 9 -7 18 -14 21 -14 7z"/>
<path d="M6932 5150 c0 -14 2 -19 5 -12 2 6 2 18 0 25 -3 6 -5 1 -5 -13z"/>
<path d="M5404 5141 c4 -6 16 -16 28 -22 15 -8 18 -8 14 0 -4 6 -16 16 -28 22
-15 8 -18 8 -14 0z"/>
<path d="M5160 5131 c0 -5 15 -16 33 -25 17 -8 28 -16 23 -16 -10 0 65 -70 75
-70 4 0 17 -16 30 -35 13 -19 30 -35 37 -35 6 0 12 -7 12 -15 0 -8 5 -15 10
-15 13 0 130 -117 130 -131 0 -5 5 -7 10 -4 6 3 10 -1 10 -9 0 -8 4 -17 9 -20
5 -4 7 3 4 15 -8 29 -162 192 -268 284 -66 56 -115 89 -115 76z"/>
<path d="M5492 5108 c7 -13 12 -27 13 -32 0 -10 25 -21 25 -11 0 15 -31 65
-41 65 -6 0 -5 -9 3 -22z"/>
<path d="M6921 5103 c-1 -6 -4 -20 -7 -30 -5 -17 -5 -17 6 0 6 10 9 23 6 30
-3 9 -5 9 -5 0z"/>
<path d="M3060 5093 c0 -4 5 -15 10 -23 8 -13 10 -13 10 2 0 9 -4 20 -10 23
-5 3 -10 3 -10 -2z"/>
<path d="M3326 5055 c-9 -19 -22 -35 -28 -35 -5 0 -7 -7 -4 -16 4 -11 -1 -18
-14 -21 -18 -5 -30 -33 -14 -33 11 0 44 42 44 55 0 7 7 15 15 19 8 3 19 16 25
30 7 18 15 23 32 20 21 -4 21 -4 3 5 -33 16 -42 12 -59 -24z"/>
<path d="M5470 5081 c0 -5 5 -13 10 -16 6 -3 10 -2 10 4 0 5 -4 13 -10 16 -5
3 -10 2 -10 -4z"/>
<path d="M3027 5054 c-20 -27 -11 -32 19 -10 12 10 16 18 9 25 -7 6 -16 1 -28
-15z"/>
<path d="M3432 5042 c14 -17 28 -37 31 -44 2 -7 8 -10 12 -6 4 4 0 19 -9 32
-15 24 -15 25 1 19 13 -4 15 -3 8 5 -5 6 -23 14 -40 18 l-30 7 27 -31z"/>
<path d="M5203 5008 c11 -116 53 -243 84 -255 7 -3 13 -13 14 -22 0 -9 3 -11
5 -4 3 7 -6 31 -19 55 -14 24 -28 57 -32 73 -4 17 -9 39 -12 50 -3 11 -5 28
-5 37 1 10 -3 20 -9 23 -5 4 -9 26 -9 51 0 25 -5 44 -11 44 -7 0 -9 -18 -6
-52z"/>
<path d="M3066 5042 c-3 -5 1 -9 9 -9 8 0 12 4 9 9 -3 4 -7 8 -9 8 -2 0 -6 -4
-9 -8z"/>
<path d="M3250 5031 c0 -11 4 -22 9 -25 5 -3 8 5 7 19 -1 29 -16 34 -16 6z"/>
<path d="M5513 5043 c-9 -3 -4 -20 15 -58 15 -30 31 -54 35 -54 4 -1 3 8 -3
19 -6 11 -8 20 -5 20 3 0 -2 15 -12 33 -9 17 -16 35 -15 40 1 4 1 7 0 6 -2 0
-8 -3 -15 -6z"/>
<path d="M6882 4993 c-11 -27 -23 -59 -27 -73 -4 -14 -23 -50 -41 -81 -19 -31
-34 -60 -34 -64 0 -11 32 33 64 88 15 26 28 47 29 47 1 0 1 -34 0 -75 -3 -118
13 -96 20 28 4 62 11 127 16 145 14 49 -4 38 -27 -15z"/>
<path d="M4395 5010 c-3 -5 -1 -10 4 -10 6 0 11 5 11 10 0 6 -2 10 -4 10 -3 0
-8 -4 -11 -10z"/>
<path d="M3511 4903 c11 -34 19 -42 19 -20 0 7 -7 22 -15 33 -13 17 -14 16 -4
-13z"/>
<path d="M3204 4899 c-19 -22 -19 -22 4 -10 12 6 22 16 22 21 0 15 -5 12 -26
-11z"/>
<path d="M5565 4900 c12 -41 27 -60 20 -25 -4 17 -11 35 -17 40 -7 7 -8 2 -3
-15z"/>
<path d="M3160 4848 c-12 -22 -12 -22 6 -6 10 10 15 20 12 24 -4 3 -12 -5 -18
-18z"/>
<path d="M7430 4835 c-7 -88 -10 -113 -19 -150 -5 -22 -12 -60 -15 -85 l-4
-45 15 50 c8 28 20 67 27 88 l13 38 28 -41 c15 -22 32 -40 37 -40 5 0 7 -4 4
-9 -3 -5 1 -12 10 -15 15 -6 15 -5 1 16 -46 65 -82 138 -88 178 -5 36 -7 39
-9 15z"/>
<path d="M7079 4838 c0 -7 -2 -28 -5 -46 -2 -19 0 -31 5 -27 9 5 13 85 5 85
-2 0 -4 -6 -5 -12z"/>
<path d="M5334 4804 c3 -7 -3 -18 -12 -23 -9 -6 -12 -11 -6 -11 6 0 14 3 18 8
4 4 13 7 19 7 20 0 14 28 -6 31 -12 2 -17 -2 -13 -12z"/>
<path d="M5596 4795 c4 -8 10 -15 15 -15 4 0 6 7 3 15 -4 8 -10 15 -15 15 -4
0 -6 -7 -3 -15z"/>
<path d="M3080 4780 c-9 -6 -10 -10 -3 -10 6 0 15 5 18 10 8 12 4 12 -15 0z"/>
<path d="M6701 4656 c-34 -57 -78 -141 -97 -187 -38 -91 -52 -112 -65 -103
-13 8 -11 -10 3 -24 6 -6 8 -15 5 -19 -4 -4 -14 0 -22 8 -15 15 -10 59 7 59 7
0 7 4 0 13 -5 6 -12 21 -14 32 -4 18 -6 17 -18 -7 -14 -30 -40 -45 -40 -24 0
10 -7 12 -22 8 -13 -3 -19 -1 -15 5 4 6 -4 13 -18 15 -14 3 -25 1 -25 -6 0 -6
-7 -3 -14 6 -7 10 -16 15 -19 11 -4 -3 -13 0 -22 7 -13 10 -15 9 -15 -8 0 -15
-5 -19 -19 -15 -10 3 -22 0 -25 -6 -4 -6 -12 -11 -18 -11 -6 0 -3 10 8 23 10
12 12 16 4 10 -8 -7 -25 -13 -39 -13 -23 -1 -24 -2 -8 -11 21 -12 13 -29 -14
-29 -11 0 -17 -4 -14 -10 3 -5 -1 -10 -10 -10 -11 0 -15 -5 -12 -14 4 -10 0
-12 -15 -8 -18 4 -19 2 -9 -16 16 -29 14 -40 -3 -16 -8 10 -19 20 -25 20 -6 1
-15 2 -21 3 -5 0 -10 5 -10 11 0 5 7 7 15 4 10 -4 15 0 14 12 0 12 -3 14 -6 6
-4 -10 -8 -10 -21 0 -10 7 -14 9 -10 4 4 -4 3 -19 -3 -33 -7 -20 -6 -24 9 -22
33 3 36 -1 14 -17 -13 -9 -26 -14 -28 -11 -3 3 -18 1 -34 -3 -20 -6 -30 -5
-34 3 -2 7 -5 4 -5 -5 -1 -11 6 -18 18 -18 10 0 22 -7 25 -16 4 -12 2 -15 -9
-10 -9 3 -15 0 -15 -10 0 -10 6 -14 15 -11 8 4 17 1 21 -5 4 -6 3 -8 -3 -5 -6
4 -14 -1 -18 -10 -5 -16 -8 -15 -25 7 -11 15 -15 27 -9 31 10 6 -70 49 -91 49
-5 0 -10 5 -10 10 0 6 -5 10 -11 10 -32 0 36 -57 70 -59 8 -1 20 -9 27 -18 15
-21 19 -47 5 -38 -5 3 -13 0 -17 -6 -4 -7 -3 -9 4 -5 6 3 13 2 17 -4 4 -6 11
-8 16 -5 5 4 9 1 9 -4 0 -6 8 -11 18 -12 9 0 12 -3 5 -5 -7 -3 -10 -13 -7 -22
5 -16 5 -16 -8 0 -10 11 -19 14 -29 7 -21 -13 -30 -11 -27 8 2 10 -3 18 -9 19
-7 1 -18 2 -24 3 -6 1 -8 10 -3 23 6 20 5 21 -9 10 -18 -15 -37 -8 -37 14 0 8
-10 14 -25 14 -14 0 -25 5 -25 11 0 5 -4 7 -10 4 -5 -3 -10 0 -10 7 0 10 -2
10 -9 -1 -7 -10 -15 -1 -30 35 -12 27 -26 57 -31 66 -15 26 -12 41 6 34 10 -4
5 12 -17 54 -32 61 -51 75 -31 23 6 -15 12 -46 13 -68 2 -22 13 -64 25 -92 13
-29 21 -53 18 -53 -12 0 121 -122 142 -131 17 -6 24 -16 24 -36 0 -39 -9 -49
-60 -72 -25 -11 -41 -21 -37 -21 5 0 -13 -19 -40 -41 -26 -23 -60 -64 -76 -93
-16 -29 -54 -74 -91 -106 -35 -30 -93 -84 -129 -120 -114 -113 -125 -122 -155
-118 -49 5 -39 52 27 130 8 9 18 15 23 12 4 -3 8 1 8 9 0 7 12 24 26 38 14 13
30 32 36 43 10 18 9 18 -24 0 -46 -26 -68 -45 -63 -55 3 -4 -4 -10 -14 -14
-11 -3 -23 -15 -26 -26 -4 -10 -11 -19 -16 -19 -5 0 -9 -8 -9 -18 0 -10 -4
-22 -9 -27 -17 -19 -21 -62 -7 -74 30 -25 70 -23 110 6 68 49 166 147 161 161
-3 8 0 12 7 9 22 -7 129 98 163 160 25 45 50 71 113 118 44 33 81 65 82 70 0
6 10 21 21 34 15 18 23 21 31 13 17 -17 28 -15 22 3 -4 8 -1 15 4 15 6 0 9 -8
7 -18 -5 -27 2 -34 84 -88 121 -80 134 -90 187 -141 69 -66 101 -111 119 -169
21 -70 19 -96 -14 -164 -17 -34 -35 -78 -42 -98 -6 -20 -15 -41 -19 -47 -3 -5
-15 -32 -25 -60 -10 -27 -22 -54 -26 -60 -5 -5 -9 -16 -9 -24 0 -8 -9 -24 -19
-35 -11 -12 -33 -49 -50 -82 -34 -68 -36 -111 -5 -106 40 8 140 11 162 5 12
-3 22 -11 22 -18 0 -8 5 -17 11 -21 7 -4 9 0 5 14 -5 16 -3 20 11 18 10 -2 17
-10 15 -18 -2 -15 25 -29 57 -32 8 -1 15 -11 16 -23 1 -15 -3 -20 -14 -16 -9
2 -7 -1 4 -8 11 -6 21 -13 23 -14 1 -1 0 -10 -4 -19 -7 -19 -35 -21 -52 -4 -9
9 -12 9 -12 0 0 -16 -27 -15 -32 0 -3 8 -10 3 -18 -12 -12 -22 -12 -24 2 -12
13 10 18 10 24 1 4 -8 3 -9 -4 -5 -7 4 -12 2 -12 -4 0 -7 -7 -10 -15 -6 -8 3
-15 1 -15 -5 0 -6 -4 -8 -9 -5 -5 4 -12 0 -14 -6 -3 -8 -6 -6 -6 5 -1 12 -9
17 -28 17 -16 0 -35 5 -43 10 -10 6 -20 3 -33 -11 -14 -15 -22 -17 -37 -9 -28
15 -36 12 -14 -6 13 -11 14 -14 3 -11 -11 4 -19 -5 -28 -29 -8 -23 -19 -34
-32 -34 -13 0 -18 -4 -13 -12 4 -8 3 -10 -2 -5 -13 12 -12 31 2 37 8 3 3 11
-11 22 -22 17 -23 17 -18 -2 3 -11 0 -20 -6 -20 -6 0 -11 -6 -11 -14 0 -23
-30 -40 -66 -38 -19 2 -34 -2 -34 -8 0 -6 4 -9 8 -6 4 2 14 1 21 -3 9 -6 6
-12 -11 -23 -34 -22 -148 -69 -190 -78 -54 -11 -197 -11 -318 -1 -60 5 -106 5
-108 0 -2 -5 -8 -9 -13 -9 -6 0 -7 5 -4 10 6 9 -11 11 -130 15 -16 1 -56 4
-87 9 -45 6 -65 4 -93 -10 -25 -11 -47 -15 -76 -10 -38 6 -39 5 -29 -15 7 -11
9 -23 6 -27 -3 -3 -6 0 -6 6 0 7 -12 12 -27 12 -26 0 -26 -1 -7 -15 25 -19 51
-19 61 0 8 13 18 12 83 -6 41 -12 91 -29 110 -39 19 -9 53 -23 75 -30 22 -7
64 -23 92 -36 62 -28 212 -72 268 -79 22 -2 63 -7 90 -10 59 -8 86 -26 31 -21
-20 1 -39 -1 -42 -5 -2 -4 -23 -6 -46 -4 -23 2 -52 -1 -65 -6 -12 -4 -25 -4
-28 0 -4 7 -70 7 -70 1 0 -1 -12 -3 -27 -4 -16 -1 -28 2 -28 5 0 4 -13 4 -30
-1 -18 -5 -32 -5 -35 1 -4 5 -30 7 -58 5 -33 -2 -57 1 -67 10 -8 7 -52 18 -97
25 -46 8 -83 16 -83 20 0 3 -16 6 -35 7 -19 1 -44 6 -54 12 -11 5 -35 10 -53
10 -18 0 -51 5 -73 11 -22 7 -88 12 -147 12 -95 0 -116 -3 -178 -28 -49 -20
-90 -46 -133 -85 -75 -69 -96 -80 -212 -113 -49 -14 -111 -37 -136 -51 -67
-38 -137 -103 -154 -142 -8 -19 -19 -34 -24 -34 -17 0 -51 -81 -51 -119 0 -83
104 -221 229 -304 129 -87 233 -119 376 -114 56 2 64 -1 119 -41 72 -51 108
-62 210 -62 76 0 78 -1 72 -22 -17 -61 -18 -81 -2 -123 12 -31 31 -54 64 -78
77 -56 108 -68 175 -68 71 1 79 2 207 35 52 14 154 39 225 57 175 42 230 61
365 130 68 35 129 59 147 59 30 0 31 -1 26 -37 -7 -53 29 -104 80 -116 43 -10
176 12 252 43 47 19 261 113 275 121 8 5 32 18 53 29 20 11 37 24 37 29 0 5 8
11 18 15 25 8 56 29 65 44 5 7 13 9 19 6 7 -4 8 -2 4 4 -4 7 -1 12 7 12 15 0
47 31 47 45 0 4 -9 0 -20 -10 -27 -25 -37 -12 -11 14 12 12 21 18 21 14 0 -3
8 1 19 11 10 9 25 14 35 10 9 -3 16 -1 16 5 0 6 -7 11 -15 11 -21 0 -19 12 6
34 21 18 22 18 16 -3 -3 -11 -2 -21 1 -21 6 0 82 79 82 86 0 2 37 58 83 125
45 66 94 140 109 162 15 23 38 54 50 68 63 74 140 191 162 249 18 48 28 130
16 130 -10 0 -20 -26 -20 -51 0 -11 -9 -39 -20 -61 -11 -23 -20 -49 -20 -58 0
-13 -43 -86 -59 -100 -3 -3 -22 -27 -41 -55 -19 -27 -46 -61 -60 -75 -15 -14
-29 -33 -33 -42 -9 -25 -80 -118 -85 -113 -3 2 -6 16 -7 30 -2 18 2 25 13 25
15 0 15 2 2 10 -13 9 -13 11 0 20 10 6 11 10 3 10 -7 0 -12 10 -10 21 1 16 -4
22 -20 24 -28 2 -37 10 -28 24 10 17 25 13 18 -5 -5 -13 -2 -15 18 -9 13 4 25
11 27 16 2 4 9 6 17 3 7 -3 18 3 24 14 8 16 6 23 -11 38 -15 14 -22 16 -25 7
-3 -7 -9 -13 -14 -13 -6 0 -7 5 -4 10 9 15 -4 12 -21 -5 -9 -8 -20 -15 -25
-15 -5 0 5 14 23 30 33 32 44 38 32 18 -5 -8 -1 -8 10 1 15 13 19 13 27 0 6
-10 9 -11 9 -1 0 7 5 10 11 7 6 -4 8 -13 5 -21 -4 -12 -2 -12 14 -4 11 6 20
13 20 16 0 3 -4 3 -9 0 -5 -3 -14 1 -21 9 -7 8 -21 15 -31 15 -11 0 -19 7 -19
15 0 8 5 15 11 15 5 0 7 -6 3 -12 -4 -8 -3 -10 2 -5 5 5 9 12 9 15 0 4 4 13 9
21 6 10 5 12 -3 7 -6 -4 -25 0 -43 8 -36 19 -48 20 -48 6 0 -6 3 -9 8 -8 4 1
20 -2 35 -7 20 -5 25 -10 16 -15 -7 -5 -19 -5 -28 -2 -14 5 -14 4 -1 -13 8
-10 10 -16 4 -12 -13 7 -37 -15 -29 -27 3 -3 -1 -2 -7 4 -15 13 -31 13 -23 0
3 -5 1 -10 -4 -10 -6 0 -11 5 -11 10 0 27 -48 3 -53 -25 -1 -11 -7 -26 -11
-34 -6 -9 -5 -12 0 -8 5 3 10 -3 10 -13 0 -11 -2 -17 -5 -15 -2 3 -11 -1 -19
-8 -12 -9 -14 -9 -9 0 5 7 -1 16 -13 23 -13 7 -20 7 -20 0 0 -5 5 -10 11 -10
5 0 8 -4 4 -9 -3 -6 3 -14 12 -20 16 -9 16 -10 -4 -8 -12 0 -19 5 -17 9 3 4
-1 8 -9 8 -8 0 -18 -11 -21 -25 -4 -14 -13 -25 -20 -25 -16 0 -29 -27 -20 -41
3 -5 -3 -9 -13 -10 -10 0 -13 -3 -6 -5 7 -3 9 -12 6 -20 -4 -12 -8 -12 -19 3
-11 15 -13 15 -8 2 3 -10 -1 -19 -11 -23 -13 -4 -14 -10 -5 -26 6 -11 7 -20 2
-20 -15 0 -34 28 -27 40 3 5 2 10 -2 10 -5 0 -9 9 -10 20 -1 11 3 20 8 20 6 0
7 -4 4 -10 -3 -5 -1 -10 4 -10 18 0 12 18 -11 34 -12 9 -18 16 -12 16 14 0 36
48 29 61 -4 5 1 9 9 9 9 0 13 6 10 14 -3 8 -1 17 5 21 6 3 11 1 11 -5 0 -6 5
-8 10 -5 6 3 10 1 10 -4 0 -6 -4 -11 -10 -11 -5 0 -10 -4 -10 -10 0 -18 19
-10 25 11 5 14 2 25 -6 30 -13 8 -5 13 14 10 4 0 7 3 7 9 0 5 -6 10 -14 10
-25 0 -22 34 5 62 25 27 46 38 34 19 -3 -5 0 -13 6 -17 8 -4 9 -3 5 4 -4 7 -1
12 8 12 20 0 29 17 15 26 -8 4 -9 3 -5 -4 8 -13 -4 -16 -19 -4 -17 12 -15 44
2 38 11 -4 13 -2 9 9 -5 13 5 19 26 16 4 0 4 7 1 16 -4 11 -3 14 5 9 8 -5 10
-2 6 8 -4 11 0 16 11 16 12 0 15 5 10 20 -4 14 -1 22 10 26 13 5 14 9 4 15
-10 6 -9 12 5 28 11 12 25 21 31 21 7 0 16 7 19 16 9 23 7 31 -4 14 -12 -20
-23 -6 -15 20 4 13 12 19 21 16 7 -3 16 0 20 6 5 7 2 8 -6 3 -19 -11 -1 56 19
73 9 7 12 11 6 9 -5 -3 -16 1 -22 8 -10 11 -10 17 2 29 10 9 11 17 5 21 -6 4
-8 11 -4 16 3 5 0 17 -7 25 -10 12 -9 13 7 8 15 -5 16 -4 4 4 -8 6 -18 8 -22
6 -12 -7 -10 -34 2 -34 6 0 5 -8 -2 -20 -7 -11 -18 -20 -25 -20 -7 0 -10 -7
-7 -15 11 -28 -6 -15 -18 15 -10 23 -16 27 -28 20 -13 -8 -12 -10 3 -10 9 0
17 -5 17 -10 0 -6 -6 -10 -13 -8 -7 2 -12 0 -12 -4 0 -3 -11 -18 -25 -33 -21
-22 -22 -28 -10 -35 8 -5 11 -10 5 -10 -5 0 -16 4 -24 9 -10 7 -18 5 -26 -5
-6 -8 -21 -16 -33 -17 l-23 -1 22 -17 c13 -9 18 -19 11 -23 -5 -3 -12 1 -16 9
-7 18 -26 20 -26 3 0 -7 -12 -25 -25 -41 -21 -24 -27 -26 -50 -15 -20 9 -28 9
-38 -1 -9 -9 -9 -14 3 -22 12 -8 11 -9 -5 -6 -11 2 -19 9 -17 18 2 8 0 10 -5
6 -4 -5 -8 -14 -8 -19 0 -6 -6 -13 -14 -16 -9 -3 -11 0 -6 8 5 8 4 11 -3 6 -6
-4 -9 -13 -6 -20 3 -7 -2 -19 -11 -26 -13 -11 -14 -10 -9 5 6 15 4 16 -12 7
-10 -6 -30 -22 -43 -36 -14 -14 -31 -26 -38 -26 -9 0 -11 -5 -7 -12 5 -8 0 -7
-11 2 -11 9 -16 10 -11 3 5 -9 -2 -13 -25 -13 -28 0 -30 -2 -18 -17 12 -15 12
-16 -5 -10 -10 4 -25 2 -32 -4 -8 -6 -22 -9 -33 -6 -14 3 -17 0 -14 -13 3 -10
-2 -20 -12 -24 -9 -3 -13 -2 -10 4 8 13 2 13 -29 -2 -14 -6 -28 -19 -31 -30
-7 -20 -55 -26 -55 -7 0 6 -9 1 -21 -12 -11 -13 -18 -19 -15 -12 11 20 -13 25
-44 9 -19 -9 -32 -11 -36 -4 -3 5 -13 0 -21 -11 -14 -21 -42 -23 -75 -6 -7 4
-5 0 5 -8 13 -11 15 -17 6 -23 -7 -4 -17 0 -25 10 -13 18 -31 5 -19 -14 3 -5
1 -10 -4 -10 -6 0 -11 5 -11 10 0 6 -4 10 -10 10 -5 0 -10 -5 -10 -11 0 -6 -6
-16 -13 -23 -10 -11 -15 -10 -25 1 -12 13 -5 18 21 14 4 0 7 4 7 10 0 6 -7 8
-15 5 -8 -3 -22 -9 -30 -12 -9 -4 -17 1 -21 10 -3 9 -14 16 -23 15 -10 0 -11
-2 -3 -6 17 -7 15 -60 -3 -67 -13 -5 -14 -2 -4 15 13 26 -1 44 -28 35 -21 -7
-27 -37 -9 -48 16 -11 -26 -10 -42 1 -10 6 -8 10 8 14 12 3 19 10 15 16 -9 16
-30 14 -45 -4 -14 -17 -35 -21 -25 -5 3 6 0 10 -7 10 -9 0 -9 3 2 10 13 8 12
10 -2 10 -12 0 -18 8 -18 23 0 16 -3 18 -9 9 -10 -17 -56 -12 -57 6 -3 25 -5
27 -15 10 -7 -13 -21 -17 -49 -16 -22 1 -37 5 -34 10 3 4 -15 8 -40 8 -25 0
-48 -4 -51 -10 -3 -5 -11 -10 -16 -10 -6 0 -7 6 -3 13 6 9 4 9 -7 1 -16 -12
-29 -12 -46 -1 -8 5 -13 3 -13 -5 0 -7 -9 -2 -20 12 -11 14 -20 19 -20 13 0
-18 -17 -16 -24 3 -4 10 -2 13 7 8 8 -5 8 -3 -1 7 -11 12 -15 11 -23 -4 -6 -9
-14 -15 -20 -12 -5 4 -9 1 -9 -4 0 -6 -4 -11 -10 -11 -5 0 -10 7 -10 16 0 8
-4 13 -9 10 -5 -3 -12 1 -15 10 -5 12 -1 14 15 9 15 -5 19 -4 15 4 -5 8 0 8
17 2 18 -7 30 -5 46 5 20 14 25 12 22 -11 -1 -5 6 -1 14 9 8 11 15 16 15 11 0
-5 5 -4 11 2 8 8 20 8 34 3 13 -5 26 -6 29 -3 3 3 32 6 63 5 32 0 62 3 68 6
19 12 65 12 65 -1 0 -6 5 -4 11 6 9 15 18 17 50 12 21 -4 39 -3 39 2 0 14 -57
32 -68 21 -5 -5 -17 -6 -26 -2 -23 9 -2 24 35 24 14 0 29 3 33 8 4 4 22 8 39
9 48 2 92 13 95 24 2 5 15 6 28 3 13 -3 24 -2 24 2 0 11 126 12 136 1 4 -4 12
-3 18 1 6 5 56 14 111 21 55 7 106 18 113 23 6 6 12 8 12 5 0 -3 14 -1 30 5
29 9 37 36 11 30 -7 -1 -10 2 -6 8 3 5 13 10 21 10 8 0 12 -4 9 -10 -8 -13 -3
-13 32 1 37 13 233 130 233 138 0 4 15 15 33 26 71 41 205 178 259 265 15 24
15 26 -3 27 -11 1 -17 -2 -14 -7 7 -11 -24 -62 -34 -55 -4 2 -13 -10 -19 -28
-6 -18 -28 -45 -49 -61 -20 -16 -33 -24 -29 -18 4 7 2 12 -5 12 -8 0 -8 4 1
15 7 8 21 15 31 15 24 0 33 16 13 24 -22 8 -26 8 -19 -4 3 -5 -2 -10 -11 -10
-10 0 -14 3 -11 7 4 3 1 13 -6 21 -9 12 -9 16 1 19 6 3 10 9 6 14 -3 5 0 9 6
9 7 0 9 -8 5 -21 -6 -19 -4 -21 14 -16 14 3 19 1 15 -6 -3 -7 2 -3 10 7 13 16
13 22 3 29 -8 5 -5 6 9 2 14 -3 26 1 35 12 9 11 10 14 1 9 -13 -8 -39 13 -43
35 -4 22 12 49 25 42 6 -3 8 -2 3 2 -4 5 0 19 8 32 9 13 13 28 10 33 -3 6 0
10 9 10 19 0 97 156 88 178 -4 13 -8 10 -18 -13 -7 -17 -13 -37 -14 -46 0 -9
-7 -22 -15 -29 -8 -7 -15 -17 -15 -22 0 -6 -16 -32 -35 -58 -19 -26 -32 -50
-30 -54 3 -3 2 -4 -2 -1 -3 3 -14 -2 -23 -10 -14 -12 -23 -12 -75 1 -32 9 -81
27 -108 41 -28 14 -62 27 -76 30 -14 2 -27 6 -29 8 -2 2 15 39 39 82 23 43 57
107 76 142 18 36 47 83 63 105 17 23 50 68 74 101 24 33 67 84 94 114 36 39
55 70 68 114 20 67 23 160 5 181 -6 7 -45 30 -86 49 -58 28 -82 47 -107 82
-18 25 -35 45 -40 45 -4 0 -8 4 -8 10 0 5 -13 29 -30 52 -41 58 -50 156 -24
243 10 33 19 62 19 65 11 37 64 147 118 243 27 48 48 90 45 92 -3 3 -33 -42
-67 -99z m-407 -252 c4 -10 1 -14 -6 -12 -15 5 -23 28 -10 28 5 0 13 -7 16
-16z m124 -25 c-3 -8 -7 -3 -11 10 -4 17 -3 21 5 13 5 -5 8 -16 6 -23z m-349
-154 c0 -5 -6 1 -14 15 -8 14 -14 30 -14 35 0 6 6 -1 14 -15 8 -14 14 -29 14
-35z m-239 -6 c0 -5 7 -9 16 -9 8 0 13 -4 10 -9 -6 -9 91 -81 110 -81 6 0 11
-7 11 -15 0 -16 -4 -15 -72 33 -84 59 -134 113 -90 96 8 -4 15 -10 15 -15z
m245 -38 c-9 -8 -36 -10 -30 -2 2 4 11 8 20 8 8 0 13 -3 10 -6z m443 -1182 c2
-5 8 -7 12 -4 5 3 11 1 14 -4 4 -5 0 -8 -6 -7 -7 2 -32 7 -55 11 -24 4 -40 11
-38 15 7 11 69 1 73 -11z m16 -75 c4 -10 1 -14 -6 -12 -15 5 -23 28 -10 28 5
0 13 -7 16 -16z m41 -4 c3 -6 -1 -7 -9 -4 -18 7 -21 14 -7 14 6 0 13 -4 16
-10z m-15 -19 c0 -5 -9 -11 -20 -14 -24 -6 -26 -20 -5 -40 18 -19 8 -29 -17
-16 -34 18 -13 62 40 78 1 1 2 -3 2 -8z m30 -21 c0 -5 -5 -10 -11 -10 -5 0 -7
5 -4 10 3 6 8 10 11 10 2 0 4 -4 4 -10z m155 0 c-3 -5 -11 -10 -16 -10 -6 0
-7 5 -4 10 3 6 11 10 16 10 6 0 7 -4 4 -10z m-115 -10 c0 -5 -2 -10 -4 -10 -3
0 -8 5 -11 10 -3 6 -1 10 4 10 6 0 11 -4 11 -10z m-357 -43 c3 -8 -3 -14 -15
-14 -11 -1 -29 -10 -39 -19 -27 -24 -35 -10 -9 16 12 12 28 19 36 16 8 -3 14
-1 14 4 0 14 7 12 13 -3z m224 -12 c0 -17 -13 -20 -21 -6 -4 5 0 12 6 14 7 3
13 6 14 6 0 1 1 -6 1 -14z m-207 -35 c0 -11 -4 -20 -9 -20 -5 0 -7 9 -4 20 3
11 7 20 9 20 2 0 4 -9 4 -20z m-110 -15 c0 -9 -6 -12 -15 -9 -8 4 -12 10 -9
15 8 14 24 10 24 -6z m467 -41 c-3 -3 -12 -4 -19 -1 -8 3 -5 6 6 6 11 1 17 -2
13 -5z m39 -20 c-3 -9 -6 -20 -6 -25 0 -5 -5 -9 -12 -9 -6 0 -19 -7 -29 -16
-14 -12 -18 -13 -25 -2 -4 7 -4 10 1 6 12 -11 35 19 29 39 -4 13 -3 14 4 5 7
-11 10 -11 15 2 4 9 11 16 18 16 6 0 8 -7 5 -16z m-76 -74 c0 -5 -5 -10 -11
-10 -5 0 -7 5 -4 10 3 6 8 10 11 10 2 0 4 -4 4 -10z m-36 -18 c2 -4 -4 -13
-14 -20 -16 -10 -18 -8 -17 8 1 20 21 27 31 12z m-49 -32 c3 -5 1 -10 -4 -10
-6 0 -11 5 -11 10 0 6 2 10 4 10 3 0 8 -4 11 -10z m430 -10 c-3 -5 -12 -10
-18 -10 -7 0 -6 4 3 10 19 12 23 12 15 0z m-465 -19 c0 -11 -31 -24 -39 -16
-3 3 1 10 9 15 19 12 30 12 30 1z m-750 -168 c0 -7 -14 -9 -42 -6 -62 8 -66
18 -8 18 31 0 50 -4 50 -12z m1034 2 c-4 -8 -11 -15 -16 -15 -6 0 -5 6 2 15 7
8 14 15 16 15 2 0 1 -7 -2 -15z m-114 -19 c0 -3 -4 -8 -10 -11 -5 -3 -10 -1
-10 4 0 6 5 11 10 11 6 0 10 -2 10 -4z m180 -56 c0 -5 -7 -7 -15 -4 -8 4 -15
8 -15 10 0 2 7 4 15 4 8 0 15 -4 15 -10z m-41 -41 c-5 -11 -15 -17 -21 -13 -7
4 -6 9 2 14 7 4 10 13 6 19 -4 7 -1 9 8 5 12 -5 13 -10 5 -25z m31 -15 c0 -16
-4 -23 -12 -18 -7 4 -8 3 -4 -4 4 -7 -5 -32 -19 -57 -27 -45 -50 -61 -39 -27
5 13 4 14 -4 3 -5 -7 -7 -22 -5 -32 3 -11 0 -19 -8 -19 -7 0 -10 3 -6 6 3 3
-3 15 -13 27 -11 11 -22 18 -25 15 -3 -3 0 -12 8 -19 19 -20 28 -49 15 -49 -7
0 -7 -4 1 -14 14 -17 4 -25 -32 -28 -14 -1 -23 -6 -21 -10 3 -5 10 -5 16 -2 6
4 6 -2 -1 -15 -7 -11 -16 -21 -22 -21 -6 0 -7 -4 -4 -10 6 -9 -8 -15 -29 -11
-5 1 -6 -6 -2 -14 10 -28 -4 -38 -27 -18 -13 11 -17 12 -10 3 7 -10 8 -21 3
-30 -5 -8 -7 -17 -4 -21 5 -9 -9 -19 -36 -24 -11 -2 -28 -11 -37 -20 -13 -13
-18 -14 -24 -3 -7 10 -9 10 -9 -2 0 -12 -55 -53 -95 -69 -5 -2 -15 -10 -22
-17 -7 -7 -22 -11 -32 -9 -11 2 -22 -3 -25 -12 -4 -8 -12 -13 -19 -10 -7 3
-23 -6 -36 -19 -24 -25 -41 -31 -41 -14 0 6 -4 10 -10 10 -5 0 -7 -6 -4 -14 7
-17 -30 -28 -45 -13 -16 16 -13 37 4 37 8 0 15 -5 15 -11 0 -5 -4 -7 -10 -4
-5 3 -10 1 -10 -4 0 -6 7 -11 15 -11 13 0 19 19 18 58 -1 6 6 12 15 12 12 0
13 3 4 12 -7 7 -12 17 -12 23 0 5 5 3 10 -5 8 -12 10 -12 10 -1 0 8 8 20 18
28 11 8 12 12 3 11 -7 -2 -15 3 -16 10 -2 7 -1 8 1 3 3 -5 17 -7 31 -5 23 4
24 3 9 -11 -9 -9 -16 -22 -16 -30 0 -7 -6 -16 -12 -18 -7 -3 -1 -6 14 -6 31
-1 45 14 22 23 -13 5 -14 9 -4 21 7 8 20 15 29 16 11 0 9 3 -6 9 -31 13 -29
22 10 40 20 10 32 22 32 35 0 13 8 21 23 23 13 2 20 8 16 14 -4 7 -2 8 4 4 9
-5 7 -14 -4 -32 -17 -25 -7 -33 15 -11 11 10 12 9 6 -2 -6 -10 -4 -12 4 -7 6
4 9 16 6 27 -4 11 -2 19 5 19 6 0 8 -4 5 -10 -3 -5 -2 -10 4 -10 5 0 8 -9 6
-20 -2 -11 0 -18 5 -15 5 3 7 15 5 27 -8 38 5 69 26 63 13 -5 17 -1 16 15 -1
23 -8 25 -25 8 -20 -20 -14 -3 8 22 13 15 20 18 20 9 0 -12 2 -12 9 0 5 8 18
12 30 8 23 -6 47 24 36 43 -3 6 -2 10 3 10 16 0 22 -13 11 -27 -9 -10 -8 -13
0 -13 7 0 9 -4 6 -10 -3 -5 0 -10 8 -10 7 0 14 7 14 15 0 8 -4 12 -9 9 -15
-10 -8 9 10 23 9 8 11 12 4 8 -7 -4 -11 -1 -10 5 2 7 -5 14 -15 15 -11 2 -22
6 -25 9 -8 9 30 2 46 -7 15 -10 35 1 26 14 -3 5 -9 7 -14 4 -5 -3 -11 -1 -15
5 -3 5 1 10 10 10 9 0 14 4 10 9 -3 5 0 13 7 17 7 4 10 4 6 -1 -4 -4 -3 -14 3
-22 10 -11 15 -9 30 8 11 12 19 17 19 10 0 -15 41 5 53 25 4 7 14 11 21 8 8
-3 17 -1 20 4 3 5 -5 8 -17 7 -12 -1 -22 -3 -22 -5 0 -6 -47 -5 -51 2 -3 4 0
8 6 8 6 0 9 4 6 8 -2 4 0 14 6 22 8 12 9 12 4 -2 -5 -17 5 -23 29 -18 25 5 32
8 58 18 15 7 30 19 33 27 9 22 14 18 14 -11z m-80 -9 c0 -2 -10 -10 -22 -16
-21 -11 -22 -11 -9 4 13 16 31 23 31 12z m-1770 -55 c0 -10 -26 -20 -34 -13
-11 12 -6 19 14 20 11 1 20 -2 20 -7z m147 -7 c-4 -3 -1 -13 6 -22 11 -14 10
-14 -5 -2 -16 12 -16 31 -1 31 4 0 3 -3 0 -7z m302 -57 c9 -11 9 -16 -1 -22
-7 -4 -10 -4 -6 1 4 4 3 14 -3 22 -6 7 -9 13 -6 13 2 0 10 -6 16 -14z m39 -17
c-3 -8 -7 -3 -11 10 -4 17 -3 21 5 13 5 -5 8 -16 6 -23z m82 7 c0 -2 -9 -6
-20 -9 -11 -3 -18 -1 -14 4 5 9 34 13 34 5z m1440 -6 c0 -5 -4 -10 -10 -10 -5
0 -10 5 -10 10 0 6 5 10 10 10 6 0 10 -4 10 -10z m-1185 -30 c3 -5 1 -10 -4
-10 -6 0 -11 5 -11 10 0 6 2 10 4 10 3 0 8 -4 11 -10z m1311 -18 c-8 -9 -19
-13 -22 -9 -10 9 16 38 28 31 6 -4 4 -13 -6 -22z m-1254 4 c7 4 8 2 4 -5 -9
-13 -26 -5 -25 12 0 9 2 8 6 -1 2 -6 10 -9 15 -6z m558 -96 c0 -11 -2 -20 -4
-20 -2 0 -6 9 -9 20 -3 11 -1 20 4 20 5 0 9 -9 9 -20z m430 -26 c0 -8 -5 -12
-10 -9 -6 4 -8 11 -5 16 9 14 15 11 15 -7z m210 -4 c0 -5 -2 -10 -4 -10 -3 0
-8 5 -11 10 -3 6 -1 10 4 10 6 0 11 -4 11 -10z m-20 -35 c0 -8 -2 -15 -4 -15
-2 0 -6 7 -10 15 -3 8 -1 15 4 15 6 0 10 -7 10 -15z m23 -25 c3 -11 0 -23 -5
-27 -7 -3 -8 -1 -4 5 4 7 3 12 -3 12 -5 0 -11 -5 -13 -12 -5 -13 -28 -2 -28
13 0 6 4 8 9 4 6 -3 16 1 23 9 7 9 14 15 14 16 1 0 4 -9 7 -20z m-383 -1 c0
-6 9 -9 19 -6 13 3 18 0 15 -7 -3 -7 -15 -12 -27 -11 -12 1 -28 -2 -35 -8 -11
-8 -11 -5 -1 16 12 27 29 36 29 16z m55 -48 c3 -5 1 -12 -5 -16 -5 -3 -10 1
-10 9 0 18 6 21 15 7z m303 -31 c-11 -39 -25 -60 -41 -60 -6 0 -2 7 9 15 19
14 19 14 -1 15 -19 1 -19 2 3 12 26 13 30 30 5 21 -15 -6 -16 -4 -6 9 7 8 10
18 7 21 -4 3 3 5 14 4 17 -1 18 -5 10 -37z m-71 -2 c-3 -8 -6 -5 -6 6 -1 11 2
17 5 13 3 -3 4 -12 1 -19z m-307 -13 c-7 -9 -15 -13 -17 -11 -7 7 7 26 19 26
6 0 6 -6 -2 -15z m315 -24 c-3 -5 2 -16 10 -25 13 -13 13 -15 -6 -21 -15 -5
-18 -9 -9 -15 8 -5 8 -10 2 -14 -5 -3 -13 1 -16 9 -3 9 1 18 9 21 11 4 12 11
5 24 -5 9 -6 20 -3 24 9 9 15 7 8 -3z m-898 -7 c-3 -3 -12 -4 -19 -1 -8 3 -5
6 6 6 11 1 17 -2 13 -5z m373 -19 c0 -2 -10 -9 -22 -15 -22 -11 -22 -10 -4 4
21 17 26 19 26 11z m-353 -25 c1 -11 -2 -18 -8 -15 -11 7 -12 35 -1 35 4 0 8
-9 9 -20z m-79 -15 c-3 -3 -9 2 -12 12 -6 14 -5 15 5 6 7 -7 10 -15 7 -18z
m-93 -3 c-3 -3 -11 0 -18 7 -9 10 -8 11 6 5 10 -3 15 -9 12 -12z m460 -1 c-3
-6 -16 -11 -28 -11 -21 0 -21 1 3 13 27 15 36 14 25 -2z m-415 -1 c0 -5 -4
-10 -10 -10 -5 0 -10 5 -10 10 0 6 5 10 10 10 6 0 10 -4 10 -10z m141 -13
c-10 -9 -11 -8 -5 6 3 10 9 15 12 12 3 -3 0 -11 -7 -18z m-74 -19 c-3 -8 -6
-5 -6 6 -1 11 2 17 5 13 3 -3 4 -12 1 -19z m913 -5 c0 -20 -24 -11 -28 10 -2
12 1 15 12 11 9 -3 16 -13 16 -21z m-170 -163 c0 -5 -4 -10 -10 -10 -5 0 -10
5 -10 10 0 6 5 10 10 10 6 0 10 -4 10 -10z m-46 -35 c-6 -16 -24 -21 -24 -7 0
11 11 22 21 22 5 0 6 -7 3 -15z m-676 -228 c24 -15 25 -16 7 -17 -27 0 -50 28
-52 65 l-2 30 10 -31 c6 -17 23 -38 37 -47z"/>
<path d="M6440 1960 c0 -5 5 -10 11 -10 5 0 7 5 4 10 -3 6 -8 10 -11 10 -2 0
-4 -4 -4 -10z"/>
<path d="M6340 1830 c0 -5 5 -10 11 -10 5 0 7 5 4 10 -3 6 -8 10 -11 10 -2 0
-4 -4 -4 -10z"/>
<path d="M6335 1802 c-16 -12 -16 -32 0 -26 8 4 15 12 15 20 0 16 -1 16 -15 6z"/>
<path d="M6261 1746 c-8 -10 -6 -12 9 -11 26 2 34 11 16 18 -8 3 -19 0 -25 -7z"/>
<path d="M7070 4745 c-4 -14 -11 -55 -14 -85 -7 -63 -47 -220 -56 -220 -12 1
-92 187 -105 244 l-15 61 4 -58 c3 -36 16 -81 35 -121 54 -114 64 -167 63
-326 0 -141 1 -147 30 -208 27 -57 85 -132 103 -132 4 0 -3 12 -14 28 -61 79
-82 116 -95 164 -7 29 -11 58 -8 63 4 6 5 44 4 85 -1 49 5 105 18 160 38 155
61 285 57 320 -2 19 -5 31 -7 25z"/>
<path d="M5320 4705 c0 -6 16 -33 35 -60 97 -137 152 -229 159 -267 2 -7 8
-25 14 -40 6 -14 16 -53 23 -85 l12 -59 -41 -77 c-46 -83 -57 -131 -22 -88 11
13 20 29 20 36 0 8 6 20 13 27 7 7 28 45 47 84 26 54 39 71 52 69 10 -2 18 1
18 7 0 5 7 8 15 5 8 -4 17 -2 20 3 4 6 -1 10 -10 10 -9 0 -15 6 -12 13 2 6 11
11 18 9 9 -2 8 3 -4 16 -9 10 -14 22 -10 25 3 4 1 7 -6 7 -7 0 -11 -7 -8 -15
4 -8 1 -17 -5 -21 -6 -4 -8 -3 -4 4 3 6 2 13 -4 17 -6 3 -9 -7 -7 -27 1 -18
-2 -34 -8 -35 -5 -2 -10 4 -10 11 0 8 -4 18 -9 23 -5 4 -7 3 -3 -2 3 -6 0 -21
-7 -34 -13 -23 -13 -23 -19 15 -4 22 -5 41 -4 44 1 3 -8 19 -21 37 -12 17 -22
39 -22 48 0 9 -9 30 -21 46 -11 16 -18 29 -14 29 3 0 -3 10 -15 22 -11 12 -19
27 -17 32 2 6 -8 21 -22 34 -14 13 -19 20 -11 16 8 -4 -2 10 -22 32 -21 21
-49 53 -62 69 -14 17 -26 25 -26 20z"/>
<path d="M4400 4690 c0 -5 5 -10 11 -10 5 0 7 5 4 10 -3 6 -8 10 -11 10 -2 0
-4 -4 -4 -10z"/>
<path d="M4336 4651 c-4 -5 -2 -12 3 -15 5 -4 12 -2 15 3 4 5 2 12 -3 15 -5 4
-12 2 -15 -3z"/>
<path d="M5633 4646 c4 -10 7 -22 7 -27 0 -5 4 -9 9 -9 12 0 2 38 -12 47 -7 4
-8 0 -4 -11z"/>
<path d="M4298 4623 c-16 -4 -34 -33 -20 -33 10 1 46 29 41 33 -2 2 -11 2 -21
0z"/>
<path d="M4900 4621 c0 -6 5 -13 10 -16 6 -4 8 -10 5 -15 -3 -5 -1 -11 5 -15
5 -3 10 1 10 9 0 8 -5 18 -10 21 -6 4 -8 11 -5 16 4 5 1 9 -4 9 -6 0 -11 -4
-11 -9z"/>
<path d="M7552 4588 c7 -15 15 -23 17 -17 2 6 -4 18 -13 27 -15 15 -15 15 -4
-10z"/>
<path d="M5660 4568 c0 -16 5 -28 10 -28 6 0 10 -8 11 -17 0 -10 3 -13 5 -7 2
6 -2 26 -10 45 -15 34 -15 34 -16 7z"/>
<path d="M4940 4575 c0 -12 42 -77 47 -72 2 3 -7 22 -22 42 -14 21 -25 34 -25
30z"/>
<path d="M5520 4539 c0 -5 5 -7 10 -4 6 3 10 8 10 11 0 2 -4 4 -10 4 -5 0 -10
-5 -10 -11z"/>
<path d="M7595 4520 c-3 -5 -1 -10 4 -10 6 0 11 5 11 10 0 6 -2 10 -4 10 -3 0
-8 -4 -11 -10z"/>
<path d="M3220 4435 c0 -8 5 -15 10 -15 6 0 10 7 10 15 0 8 -4 15 -10 15 -5 0
-10 -7 -10 -15z"/>
<path d="M4000 4440 c0 -5 5 -10 11 -10 5 0 7 5 4 10 -3 6 -8 10 -11 10 -2 0
-4 -4 -4 -10z"/>
<path d="M4100 4435 c0 -8 4 -15 10 -15 5 0 7 7 4 15 -4 8 -8 15 -10 15 -2 0
-4 -7 -4 -15z"/>
<path d="M4074 4403 c0 -9 -5 -18 -13 -21 -10 -3 -12 0 -7 14 5 14 4 16 -4 8
-9 -9 -8 -17 2 -33 16 -26 25 -26 63 -1 21 14 25 20 13 20 -10 0 -18 -5 -18
-11 0 -5 -4 -8 -10 -4 -5 3 -7 12 -4 19 3 7 -1 16 -9 19 -9 3 -14 -1 -13 -10z"/>
<path d="M6165 4410 c-3 -5 -1 -10 4 -10 6 0 11 5 11 10 0 6 -2 10 -4 10 -3 0
-8 -4 -11 -10z"/>
<path d="M4161 4390 c-9 -5 -4 -7 13 -7 29 0 32 2 13 10 -8 3 -20 2 -26 -3z"/>
<path d="M6130 4396 c0 -2 7 -7 16 -10 8 -3 12 -2 9 4 -6 10 -25 14 -25 6z"/>
<path d="M7657 4379 c4 -13 8 -18 11 -10 2 7 -1 18 -6 23 -8 8 -9 4 -5 -13z"/>
<path d="M5800 4377 c0 -2 15 -16 33 -33 l32 -29 -29 33 c-28 30 -36 37 -36
29z"/>
<path d="M3890 4362 c0 -4 12 -12 26 -19 29 -13 64 -2 64 20 0 8 -4 6 -10 -3
-9 -13 -11 -13 -20 0 -6 10 -10 11 -10 3 0 -9 -7 -10 -25 -3 -14 5 -25 6 -25
2z"/>
<path d="M4004 4345 c-4 -16 -2 -31 6 -38 10 -9 11 -9 6 0 -3 6 0 15 8 20 12
7 12 11 1 27 -13 17 -14 17 -21 -9z"/>
<path d="M5627 4363 c-4 -3 -7 -11 -7 -17 0 -6 5 -5 12 2 6 6 9 14 7 17 -3 3
-9 2 -12 -2z"/>
<path d="M5770 4343 c29 -33 81 -83 87 -83 8 0 -18 37 -47 64 -16 16 -30 33
-30 38 0 4 -8 8 -17 8 -14 0 -12 -5 7 -27z"/>
<path d="M4140 4351 c0 -7 -5 -9 -12 -5 -8 5 -9 2 -5 -10 6 -14 4 -15 -14 -5
-16 8 -24 8 -33 -1 -8 -8 -7 -10 7 -5 13 6 17 2 17 -16 0 -19 2 -21 10 -9 5 8
10 11 10 6 0 -5 8 -2 18 7 10 10 28 14 42 12 14 -3 18 -2 10 1 -8 4 -23 13
-32 22 -13 10 -18 11 -18 3z"/>
<path d="M3233 4313 c-15 -5 -17 -23 -4 -23 5 0 11 7 15 15 3 8 4 15 3 14 -1
0 -8 -3 -14 -6z"/>
<path d="M5936 4305 c4 -8 8 -15 10 -15 2 0 4 7 4 15 0 8 -4 15 -10 15 -5 0
-7 -7 -4 -15z"/>
<path d="M3201 4261 c-8 -5 -10 -14 -7 -20 9 -13 33 -15 40 -2 9 14 -18 31
-33 22z"/>
<path d="M5870 4250 c0 -5 5 -10 11 -10 5 0 7 5 4 10 -3 6 -8 10 -11 10 -2 0
-4 -4 -4 -10z"/>
<path d="M5647 4186 c-16 -13 -16 -14 4 -19 13 -4 18 -10 13 -18 -4 -8 -3 -10
5 -5 9 6 9 11 1 21 -7 8 -9 19 -5 25 8 13 4 12 -18 -4z"/>
<path d="M5790 4140 c6 -11 16 -17 25 -13 12 4 13 9 4 19 -6 8 -18 14 -26 14
-11 0 -11 -4 -3 -20z"/>
<path d="M5642 4100 c0 -14 2 -19 5 -12 2 6 2 18 0 25 -3 6 -5 1 -5 -13z"/>
<path d="M5676 4112 c-3 -5 1 -9 9 -9 8 0 15 4 15 9 0 4 -4 8 -9 8 -6 0 -12
-4 -15 -8z"/>
<path d="M5710 4100 c0 -5 5 -10 10 -10 6 0 10 5 10 10 0 6 -4 10 -10 10 -5 0
-10 -4 -10 -10z"/>
<path d="M5666 4077 c3 -10 9 -15 12 -12 3 3 0 11 -7 18 -10 9 -11 8 -5 -6z"/>
<path d="M5730 4040 c0 -6 7 -10 15 -10 8 0 15 2 15 4 0 2 -7 6 -15 10 -8 3
-15 1 -15 -4z"/>
<path d="M5621 4024 c0 -11 3 -14 6 -6 3 7 2 16 -1 19 -3 4 -6 -2 -5 -13z"/>
<path d="M5661 4025 c9 -11 14 -27 11 -35 -4 -11 0 -10 13 3 9 10 15 21 11 24
-3 4 -6 3 -6 -2 0 -4 -10 0 -22 11 -23 19 -23 19 -7 -1z"/>
<path d="M5688 4033 c7 -3 16 -2 19 1 4 3 -2 6 -13 5 -11 0 -14 -3 -6 -6z"/>
<path d="M5835 4030 c3 -5 8 -10 11 -10 2 0 4 5 4 10 0 6 -5 10 -11 10 -5 0
-7 -4 -4 -10z"/>
<path d="M5557 4013 c-4 -3 -7 -11 -7 -17 0 -6 5 -5 12 2 6 6 9 14 7 17 -3 3
-9 2 -12 -2z"/>
<path d="M7727 3975 c-4 -27 -10 -65 -13 -82 -3 -20 -1 -33 5 -33 16 0 23 38
19 105 l-3 60 -8 -50z"/>
<path d="M5440 3963 c-18 -21 -59 -66 -92 -100 -86 -90 -52 -78 40 14 42 43
80 77 83 76 4 -1 7 9 7 22 0 14 -2 25 -3 25 -2 0 -17 -17 -35 -37z"/>
<path d="M5567 3960 c-3 -11 -1 -20 4 -20 5 0 9 9 9 20 0 11 -2 20 -4 20 -2 0
-6 -9 -9 -20z"/>
<path d="M5495 3921 c-8 -14 12 -23 36 -16 17 6 19 9 8 16 -18 11 -36 11 -44
0z"/>
<path d="M5575 3910 c-3 -5 -1 -10 4 -10 6 0 11 5 11 10 0 6 -2 10 -4 10 -3 0
-8 -4 -11 -10z"/>
<path d="M5627 3889 c7 -7 15 -10 18 -7 3 3 -2 9 -12 12 -14 6 -15 5 -6 -5z"/>
<path d="M7404 3871 c3 -18 6 -43 6 -55 0 -15 3 -17 9 -7 9 13 -2 77 -15 89
-4 4 -4 -8 0 -27z"/>
<path d="M5599 3863 c-13 -16 -12 -17 4 -4 16 13 21 21 13 21 -2 0 -10 -8 -17
-17z"/>
<path d="M7124 3867 c3 -10 9 -42 12 -71 l6 -53 -73 -69 c-145 -136 -162 -153
-174 -178 -11 -21 -11 -24 1 -19 8 3 14 10 14 15 0 12 158 168 170 168 5 0 23
19 41 41 29 36 32 48 31 97 -1 38 -7 61 -18 71 -15 15 -16 14 -10 -2z"/>
<path d="M7705 3820 c-3 -5 -1 -10 4 -10 6 0 11 5 11 10 0 6 -2 10 -4 10 -3 0
-8 -4 -11 -10z"/>
<path d="M5359 3786 c-13 -14 -37 -38 -54 -54 -16 -16 -43 -48 -60 -71 l-30
-43 -3 31 c-3 30 25 81 58 108 8 6 12 14 8 18 -9 10 -87 -73 -94 -100 -9 -35
24 -133 49 -147 20 -10 21 -10 9 5 -19 23 -22 65 -6 78 8 6 14 17 14 23 0 6
10 18 21 26 30 21 65 58 96 103 31 44 26 57 -8 23z"/>
<path d="M7414 3773 c3 -10 8 -30 12 -45 3 -16 10 -28 15 -28 12 0 11 37 -1
45 -5 3 -10 15 -10 26 0 10 -5 19 -11 19 -6 0 -8 -8 -5 -17z"/>
<path d="M7527 3715 c-4 -8 -2 -17 3 -20 6 -4 10 3 10 14 0 25 -6 27 -13 6z"/>
<path d="M7705 3720 c3 -5 8 -10 11 -10 2 0 4 5 4 10 0 6 -5 10 -11 10 -5 0
-7 -4 -4 -10z"/>
<path d="M7443 3650 c6 -22 13 -38 15 -36 6 7 -10 76 -18 76 -4 0 -2 -18 3
-40z"/>
<path d="M5400 3641 c0 -9 30 -24 36 -18 2 1 -6 8 -16 15 -11 7 -20 8 -20 3z"/>
<path d="M7456 3473 c0 -156 -8 -215 -45 -307 -49 -120 -76 -181 -83 -184 -4
-2 -5 -9 -2 -17 3 -7 -2 -25 -11 -39 -27 -41 -32 -179 -10 -252 10 -33 26 -67
36 -76 10 -10 21 -28 25 -40 3 -13 9 -25 13 -28 17 -14 28 -50 24 -75 -4 -19
-2 -26 6 -21 18 11 13 49 -14 102 -31 61 -31 68 2 89 87 57 303 284 303 319 0
7 9 25 21 40 11 14 17 30 14 36 -3 5 -2 10 3 10 5 0 12 9 15 20 3 11 1 20 -4
20 -5 0 -9 -6 -9 -14 0 -19 -26 -40 -35 -26 -3 5 -1 10 4 10 6 0 11 7 11 16 0
9 -5 12 -12 8 -7 -4 -4 3 7 16 13 15 15 21 5 16 -12 -6 -12 -5 1 6 9 7 14 19
11 26 -2 7 2 20 10 29 9 12 9 15 1 9 -7 -4 -13 -3 -13 1 0 5 6 15 13 22 10 11
7 12 -15 7 -21 -5 -28 -2 -33 14 -4 11 -11 17 -17 14 -7 -5 -8 -2 -3 6 5 9 2
10 -14 5 -13 -4 -21 -2 -21 5 0 6 5 8 10 5 6 -3 10 -2 10 4 0 5 -9 12 -20 16
-11 3 -19 9 -19 13 3 19 -3 22 -23 12 -21 -10 -21 -9 2 9 29 24 44 27 37 8 -7
-19 8 -43 17 -28 4 6 1 11 -6 11 -10 0 -10 2 1 9 11 7 8 13 -17 28 -18 11 -30
23 -27 26 3 4 2 5 -2 2 -3 -3 -12 0 -20 6 -10 9 -13 8 -13 -5 0 -9 -7 -19 -15
-22 -8 -4 -15 -14 -15 -24 0 -11 -5 -22 -12 -26 -7 -4 -8 -3 -4 4 4 8 0 12
-11 12 -16 1 -16 2 -3 13 8 7 23 29 32 50 17 36 17 37 -2 37 -14 0 -18 -5 -13
-17 5 -13 3 -15 -13 -9 -15 6 -17 5 -6 -5 6 -7 12 -20 11 -29 0 -10 -2 -11 -6
-2 -2 6 -9 12 -15 12 -6 0 -8 -7 -5 -15 4 -8 2 -17 -3 -20 -6 -4 -10 12 -11
37 0 24 -2 70 -4 103 -2 33 -4 79 -4 103 -1 23 -4 42 -8 42 -5 0 -8 -57 -7
-127z m124 -153 c0 -5 -4 -10 -10 -10 -5 0 -10 5 -10 10 0 6 5 10 10 10 6 0
10 -4 10 -10z m-30 -68 c3 -3 -2 -3 -11 1 -9 3 -27 -5 -42 -19 -38 -35 -48
-30 -32 15 7 22 10 43 7 47 -7 7 69 -35 78 -44z m77 -8 c-3 -3 -12 -4 -19 -1
-8 3 -5 6 6 6 11 1 17 -2 13 -5z m-27 -26 c8 -3 -3 -5 -24 -5 -21 1 -34 3 -27
5 6 2 8 8 5 14 -4 7 0 7 12 0 11 -5 26 -12 34 -14z"/>
<path d="M7714 3566 c0 -13 4 -22 9 -19 10 6 9 43 -2 43 -5 0 -8 -11 -7 -24z"/>
<path d="M7720 3520 c0 -5 5 -10 10 -10 6 0 10 5 10 10 0 6 -4 10 -10 10 -5 0
-10 -4 -10 -10z"/>
<path d="M7742 3451 c1 -16 5 -28 9 -26 6 5 0 55 -7 55 -3 0 -3 -13 -2 -29z"/>
<path d="M7578 3463 c6 -2 18 -2 25 0 6 3 1 5 -13 5 -14 0 -19 -2 -12 -5z"/>
<path d="M6860 3399 c0 -5 5 -7 10 -4 6 3 10 8 10 11 0 2 -4 4 -10 4 -5 0 -10
-5 -10 -11z"/>
<path d="M7750 3399 c0 -5 5 -7 10 -4 6 3 10 8 10 11 0 2 -4 4 -10 4 -5 0 -10
-5 -10 -11z"/>
<path d="M6872 3320 c10 -30 28 -50 28 -31 0 5 -4 13 -10 16 -5 3 -10 15 -10
26 0 10 -4 19 -9 19 -6 0 -6 -12 1 -30z"/>
<path d="M7771 3314 c0 -11 3 -14 6 -6 3 7 2 16 -1 19 -3 4 -6 -2 -5 -13z"/>
<path d="M7680 3289 c0 -5 5 -7 10 -4 6 3 10 8 10 11 0 2 -4 4 -10 4 -5 0 -10
-5 -10 -11z"/>
<path d="M7700 3270 c0 -14 15 -19 29 -11 9 6 7 10 -8 14 -12 3 -21 1 -21 -3z"/>
<path d="M7693 3238 c-2 -5 1 -8 7 -8 6 0 9 -4 6 -9 -3 -5 5 -8 18 -7 32 1 30
31 -2 31 -13 0 -26 -3 -29 -7z"/>
<path d="M7774 3195 c0 -19 3 -35 8 -35 4 0 8 16 8 35 0 46 -15 46 -16 0z"/>
<path d="M6075 2980 c4 -6 11 -8 16 -5 14 9 11 15 -7 15 -8 0 -12 -5 -9 -10z"/>
<path d="M6036 2964 c-11 -8 -16 -14 -10 -14 13 0 39 18 34 24 -3 2 -14 -2
-24 -10z"/>
<path d="M5945 2900 c-3 -5 -1 -10 4 -10 6 0 11 5 11 10 0 6 -2 10 -4 10 -3 0
-8 -4 -11 -10z"/>
<path d="M6766 2897 c3 -10 9 -15 12 -12 3 3 0 11 -7 18 -10 9 -11 8 -5 -6z"/>
<path d="M6295 2890 c-3 -6 1 -7 9 -4 18 7 21 14 7 14 -6 0 -13 -4 -16 -10z"/>
<path d="M6333 2875 c0 -8 4 -15 9 -15 5 0 6 -4 3 -10 -3 -5 -1 -10 4 -10 15
0 14 25 -2 39 -10 8 -14 7 -14 -4z"/>
<path d="M5930 2869 c0 -5 5 -7 10 -4 6 3 10 8 10 11 0 2 -4 4 -10 4 -5 0 -10
-5 -10 -11z"/>
<path d="M6171 2863 c-12 -13 -11 -14 9 -8 15 5 20 3 16 -3 -3 -6 -2 -13 3
-16 18 -11 21 11 3 27 -15 14 -18 14 -31 0z"/>
<path d="M5886 2835 c-25 -38 -19 -53 9 -20 13 17 24 33 25 38 0 15 -18 6 -34
-18z"/>
<path d="M5860 2761 c0 -11 7 -27 16 -35 22 -23 28 -20 10 5 -8 12 -12 28 -9
35 3 8 0 14 -6 14 -6 0 -11 -9 -11 -19z"/>
<path d="M5930 2710 c-9 -6 -10 -10 -3 -10 6 0 15 5 18 10 8 12 4 12 -15 0z"/>
<path d="M6970 2670 c-9 -6 -10 -10 -3 -10 6 0 15 5 18 10 8 12 4 12 -15 0z"/>
<path d="M6980 2640 c0 -5 5 -10 10 -10 6 0 10 5 10 10 0 6 -4 10 -10 10 -5 0
-10 -4 -10 -10z"/>
<path d="M4770 2613 c-55 -9 -157 -58 -187 -89 -31 -32 -44 -74 -23 -74 6 0
10 6 10 14 0 44 163 123 269 130 36 3 68 5 71 6 3 0 -1 4 -8 8 -14 9 -93 12
-132 5z"/>
<path d="M6876 2581 c-4 -7 -5 -15 -2 -18 9 -9 19 4 14 18 -4 11 -6 11 -12 0z"/>
<path d="M4967 2563 c-4 -3 -7 -11 -7 -16 0 -6 3 -7 7 -4 3 4 13 1 22 -6 14
-11 15 -10 1 8 -8 11 -15 21 -16 23 0 1 -4 -1 -7 -5z"/>
<path d="M7180 2389 c0 -5 5 -7 10 -4 6 3 10 8 10 11 0 2 -4 4 -10 4 -5 0 -10
-5 -10 -11z"/>
<path d="M7170 2355 c0 -8 4 -15 10 -15 5 0 7 7 4 15 -4 8 -8 15 -10 15 -2 0
-4 -7 -4 -15z"/>
<path d="M7122 2356 c3 -4 0 -19 -8 -34 -13 -25 -10 -46 4 -27 4 6 13 10 21
10 8 0 17 7 19 15 4 12 3 13 -10 3 -18 -15 -32 -5 -17 13 7 9 6 14 -3 20 -7 4
-10 4 -6 0z"/>
<path d="M7193 2307 c-40 -9 -60 -35 -30 -38 6 -1 22 -3 34 -4 12 -1 20 1 17
6 -2 4 -12 5 -21 2 -11 -4 -14 -2 -11 8 3 8 16 13 32 12 17 -1 26 3 26 13 0 8
-1 13 -2 13 -2 -1 -22 -6 -45 -12z"/>
<path d="M7335 2300 c3 -5 8 -10 11 -10 2 0 4 5 4 10 0 6 -5 10 -11 10 -5 0
-7 -4 -4 -10z"/>
<path d="M6070 2291 c0 -6 4 -13 10 -16 6 -3 7 1 4 9 -7 18 -14 21 -14 7z"/>
<path d="M7057 2283 c3 -7 9 -13 15 -13 5 0 6 -5 2 -12 -4 -7 -3 -8 5 -4 8 6
9 12 2 20 -6 7 -9 15 -6 18 3 2 -1 5 -9 5 -8 0 -12 -6 -9 -14z"/>
<path d="M6120 2271 c0 -5 7 -15 17 -22 15 -13 15 -12 4 9 -12 23 -21 28 -21
13z"/>
<path d="M6215 2230 c-3 -5 -1 -10 4 -10 6 0 11 5 11 10 0 6 -2 10 -4 10 -3 0
-8 -4 -11 -10z"/>
<path d="M7120 2230 c-8 -5 -10 -10 -5 -10 6 0 17 5 25 10 8 5 11 10 5 10 -5
0 -17 -5 -25 -10z"/>
<path d="M7186 2215 c-9 -26 -7 -32 5 -12 6 10 9 21 6 23 -2 3 -7 -2 -11 -11z"/>
<path d="M5989 2183 c-9 -11 -10 -14 -1 -9 6 4 12 3 12 -2 0 -5 7 -9 15 -9 12
0 12 3 3 16 -7 9 -13 17 -14 19 -1 1 -7 -5 -15 -15z"/>
<path d="M7156 2183 c-6 -14 -5 -15 5 -6 7 7 10 15 7 18 -3 3 -9 -2 -12 -12z"/>
<path d="M5945 2180 c3 -5 8 -10 11 -10 2 0 4 5 4 10 0 6 -5 10 -11 10 -5 0
-7 -4 -4 -10z"/>
<path d="M6995 2159 c-3 -4 2 -6 10 -5 21 3 28 13 10 13 -9 0 -18 -4 -20 -8z"/>
<path d="M5810 2140 c0 -5 5 -10 11 -10 5 0 7 5 4 10 -3 6 -8 10 -11 10 -2 0
-4 -4 -4 -10z"/>
<path d="M6837 2143 c-13 -12 -7 -23 11 -22 10 0 12 3 4 6 -6 2 -10 9 -6 14 6
10 0 12 -9 2z"/>
<path d="M5743 2118 c-2 -16 1 -18 10 -9 7 7 8 14 1 21 -6 6 -10 2 -11 -12z"/>
<path d="M5865 2130 c-3 -5 1 -10 9 -10 8 0 18 5 21 10 3 6 -1 10 -9 10 -8 0
-18 -4 -21 -10z"/>
<path d="M5701 2104 c0 -11 3 -14 6 -6 3 7 2 16 -1 19 -3 4 -6 -2 -5 -13z"/>
<path d="M6765 1969 c-4 -17 -3 -35 2 -40 6 -6 10 -5 11 3 1 7 4 25 8 41 4 16
2 27 -4 27 -6 0 -13 -14 -17 -31z"/>
<path d="M6825 1990 c-8 -13 5 -13 25 0 13 8 13 10 -2 10 -9 0 -20 -4 -23 -10z"/>
<path d="M7120 1960 c0 -5 5 -10 11 -10 5 0 7 5 4 10 -3 6 -8 10 -11 10 -2 0
-4 -4 -4 -10z"/>
<path d="M6865 1559 c-4 -6 -4 -13 -1 -16 3 -4 6 -1 6 6 0 7 5 9 12 5 7 -4 8
-3 4 4 -9 15 -13 15 -21 1z"/>
</g>
</svg>
